<svg width="16" height="16" viewBox="0 0 16 16" fill="none" xmlns="http://www.w3.org/2000/svg">
<g clip-path="url(#clip0_1275_111)">
<path d="M0.17369 5.33563C0.227422 5.3895 0.290997 5.43193 0.360759 5.46049C0.430522 5.48904 0.505094 5.50315 0.580187 5.502C0.65528 5.50086 0.729411 5.48448 0.798316 5.45382C0.867222 5.42315 0.929542 5.3788 0.981692 5.32331L2.19769 4.03613V13.4131C2.19769 13.5687 2.2579 13.7179 2.36506 13.8279C2.47223 13.9379 2.61757 13.9998 2.76912 13.9998C2.92068 13.9998 3.06602 13.9379 3.17318 13.8279C3.28035 13.7179 3.34055 13.5687 3.34055 13.4131V4.03613L4.55655 5.32331C4.60882 5.37863 4.67119 5.42284 4.74009 5.45341C4.809 5.48398 4.8831 5.50032 4.95815 5.50149C5.03321 5.50266 5.10776 5.48864 5.17754 5.46023C5.24732 5.43183 5.31096 5.38959 5.36484 5.33593C5.41872 5.28226 5.46178 5.21823 5.49155 5.14749C5.52133 5.07674 5.53724 5.00067 5.53839 4.92361C5.53953 4.84655 5.52587 4.77001 5.4982 4.69837C5.47054 4.62673 5.42939 4.56138 5.37713 4.50606L3.17884 2.17987C3.12587 2.12311 3.06227 2.07795 2.99186 2.0471C2.92145 2.01624 2.84568 2.00034 2.76912 2.00034C2.69257 2.00034 2.6168 2.01624 2.54639 2.0471C2.47598 2.07795 2.41237 2.12311 2.35941 2.17987H2.35884L0.161119 4.50548C0.0556427 4.6172 -0.00228834 4.76736 6.92403e-05 4.92293C0.00242682 5.07851 0.0648799 5.22733 0.17369 5.33563ZM14.2171 6.19454C14.2171 6.03894 14.1569 5.88971 14.0498 5.77969C13.9426 5.66966 13.7973 5.60785 13.6457 5.60785H7.44456C7.29301 5.60785 7.14766 5.66966 7.0405 5.77969C6.93333 5.88971 6.87313 6.03894 6.87313 6.19454C6.87313 6.35013 6.93333 6.49936 7.0405 6.60938C7.14766 6.71941 7.29301 6.78122 7.44456 6.78122H13.6457C13.7973 6.78122 13.9426 6.71941 14.0498 6.60938C14.1569 6.49936 14.2171 6.35013 14.2171 6.19454ZM12.4343 9.80263C12.4343 9.64703 12.3741 9.49781 12.2669 9.38778C12.1597 9.27776 12.0144 9.21595 11.8629 9.21595H7.44456C7.29301 9.21595 7.14766 9.27776 7.0405 9.38778C6.93333 9.49781 6.87313 9.64703 6.87313 9.80263C6.87313 9.95823 6.93333 10.1075 7.0405 10.2175C7.14766 10.3275 7.29301 10.3893 7.44456 10.3893H11.8629C12.0144 10.3893 12.1597 10.3275 12.2669 10.2175C12.3741 10.1075 12.4343 9.95823 12.4343 9.80263ZM7.44456 12.8264C7.29301 12.8264 7.14766 12.8882 7.0405 12.9982C6.93333 13.1083 6.87313 13.2575 6.87313 13.4131C6.87313 13.5687 6.93333 13.7179 7.0405 13.8279C7.14766 13.9379 7.29301 13.9998 7.44456 13.9998H10.08C10.2315 13.9998 10.3769 13.9379 10.4841 13.8279C10.5912 13.7179 10.6514 13.5687 10.6514 13.4131C10.6514 13.2575 10.5912 13.1083 10.4841 12.9982C10.3769 12.8882 10.2315 12.8264 10.08 12.8264H7.44456ZM15.4286 1.99976H7.44456C7.29301 1.99976 7.14766 2.06157 7.0405 2.17159C6.93333 2.28162 6.87313 2.43084 6.87313 2.58644C6.87313 2.74204 6.93333 2.89126 7.0405 3.00129C7.14766 3.11131 7.29301 3.17312 7.44456 3.17312H15.4286C15.5801 3.17312 15.7255 3.11131 15.8326 3.00129C15.9398 2.89126 16 2.74204 16 2.58644C16 2.43084 15.9398 2.28162 15.8326 2.17159C15.7255 2.06157 15.5801 1.99976 15.4286 1.99976Z" fill="#363739"/>
</g>
<defs>
<clipPath id="clip0_1275_111">
<rect width="16" height="16" fill="white"/>
</clipPath>
</defs>
</svg>
