<svg width="16" height="16" viewBox="0 0 16 16" fill="none" xmlns="http://www.w3.org/2000/svg">
<g clip-path="url(#clip0_1275_117)">
<path d="M0.173691 10.5951C0.06488 10.7006 0.00242683 10.845 6.92404e-05 10.9965C-0.00228834 11.1481 0.0556428 11.2943 0.161119 11.4031L2.35884 13.6683C2.41181 13.7236 2.47545 13.7677 2.54592 13.7978C2.61638 13.8279 2.69221 13.8434 2.76884 13.8434C2.84547 13.8434 2.9213 13.8279 2.99177 13.7978C3.06223 13.7677 3.12587 13.7236 3.17884 13.6683L5.37713 11.4031C5.43183 11.3498 5.47527 11.2861 5.5049 11.2157C5.53454 11.1453 5.54976 11.0696 5.54966 10.9933C5.54956 10.9169 5.53415 10.8413 5.50434 10.771C5.47453 10.7006 5.43092 10.637 5.3761 10.5838C5.32127 10.5306 5.25634 10.489 5.18514 10.4613C5.11394 10.4337 5.03792 10.4206 4.96157 10.4228C4.88522 10.425 4.81009 10.4425 4.74063 10.4743C4.67116 10.5061 4.60877 10.5514 4.55713 10.6077L3.33999 11.8614V2.72768C3.33999 2.57613 3.27978 2.43078 3.17262 2.32362C3.06545 2.21645 2.92011 2.15625 2.76856 2.15625C2.617 2.15625 2.47166 2.21645 2.36449 2.32362C2.25733 2.43078 2.19712 2.57613 2.19712 2.72768V11.8609L0.981693 10.6077C0.87621 10.4989 0.731824 10.4364 0.580295 10.4341C0.428767 10.4317 0.282508 10.4897 0.173691 10.5951ZM14.2172 6.24198C14.2172 6.09042 14.157 5.94508 14.0498 5.83791C13.9426 5.73075 13.7973 5.67055 13.6457 5.67055H7.44457C7.29302 5.67055 7.14767 5.73075 7.04051 5.83791C6.93334 5.94508 6.87314 6.09042 6.87314 6.24198C6.87314 6.39353 6.93334 6.53887 7.04051 6.64604C7.14767 6.7532 7.29302 6.81341 7.44457 6.81341H13.6457C13.7973 6.81341 13.9426 6.7532 14.0498 6.64604C14.157 6.53887 14.2172 6.39353 14.2172 6.24198ZM12.4343 9.75627C12.4343 9.60472 12.3741 9.45937 12.2669 9.35221C12.1598 9.24505 12.0144 9.18484 11.8629 9.18484H7.44457C7.29302 9.18484 7.14767 9.24505 7.04051 9.35221C6.93334 9.45937 6.87314 9.60472 6.87314 9.75627C6.87314 9.90782 6.93334 10.0532 7.04051 10.1603C7.14767 10.2675 7.29302 10.3277 7.44457 10.3277H11.8629C12.0144 10.3277 12.1598 10.2675 12.2669 10.1603C12.3741 10.0532 12.4343 9.90782 12.4343 9.75627ZM7.44457 12.7014C7.29302 12.7014 7.14767 12.7616 7.04051 12.8688C6.93334 12.976 6.87314 13.1213 6.87314 13.2729C6.87314 13.4244 6.93334 13.5698 7.04051 13.6769C7.14767 13.7841 7.29302 13.8443 7.44457 13.8443H10.08C10.2316 13.8443 10.3769 13.7841 10.4841 13.6769C10.5912 13.5698 10.6514 13.4244 10.6514 13.2729C10.6514 13.1213 10.5912 12.976 10.4841 12.8688C10.3769 12.7616 10.2316 12.7014 10.08 12.7014H7.44457ZM15.4286 2.15625H7.44457C7.29302 2.15625 7.14767 2.21645 7.04051 2.32362C6.93334 2.43078 6.87314 2.57613 6.87314 2.72768C6.87314 2.87923 6.93334 3.02458 7.04051 3.13174C7.14767 3.23891 7.29302 3.29911 7.44457 3.29911H15.4286C15.5801 3.29911 15.7255 3.23891 15.8327 3.13174C15.9398 3.02458 16 2.87923 16 2.72768C16 2.57613 15.9398 2.43078 15.8327 2.32362C15.7255 2.21645 15.5801 2.15625 15.4286 2.15625Z" fill="#363739"/>
</g>
<defs>
<clipPath id="clip0_1275_117">
<rect width="16" height="16" fill="white"/>
</clipPath>
</defs>
</svg>
