<svg width="16" height="16" viewBox="0 0 16 16" fill="none" xmlns="http://www.w3.org/2000/svg">
<path d="M10.9629 1.45502C10.9962 1.36684 11.0457 1.28648 11.1085 1.21857C11.2349 1.08103 11.4085 1.00209 11.59 0.999111C11.7716 0.996131 11.9468 1.06936 12.0771 1.20268L14.7905 3.98128C14.8568 4.04823 14.9094 4.12862 14.9454 4.21762C14.9814 4.30662 15 4.40239 15 4.49916C15 4.59593 14.9814 4.69169 14.9454 4.78069C14.9094 4.86969 14.8568 4.95009 14.7905 5.01703L12.0764 7.79564C12.0119 7.8617 11.9356 7.91371 11.8521 7.94868C11.7685 7.98365 11.6792 8.00091 11.5893 7.99947C11.4994 7.99803 11.4106 7.97791 11.328 7.94028C11.2455 7.90264 11.1708 7.84821 11.1082 7.78011C11.0456 7.71201 10.9963 7.63156 10.9632 7.54336C10.93 7.45516 10.9137 7.36093 10.915 7.26606C10.9164 7.17119 10.9354 7.07754 10.9711 6.99044C11.0068 6.90334 11.0584 6.82451 11.1229 6.75845L12.6247 5.22144L1.68414 5.22144C1.50259 5.22144 1.32848 5.14534 1.20011 5.00989C1.07174 4.87443 0.999621 4.69072 0.999621 4.49916C0.999621 4.3076 1.07174 4.12388 1.20011 3.98843C1.32848 3.85298 1.50259 3.77688 1.68414 3.77688L12.6247 3.77688L11.1229 2.23987C11.0582 2.17395 11.0064 2.09518 10.9706 2.00808C10.9349 1.92099 10.9158 1.82729 10.9144 1.73237C10.9131 1.63746 10.9295 1.5432 10.9629 1.45502Z" fill="#363739"/>
<path d="M5.03714 14.544C5.00383 14.6322 4.95432 14.7125 4.89147 14.7805C4.76511 14.918 4.59147 14.9969 4.40995 14.9999C4.22844 15.0029 4.05323 14.9297 3.92288 14.7963L1.20947 12.0177C1.14325 11.9508 1.09055 11.8704 1.05456 11.7814C1.01856 11.6924 1 11.5966 1 11.4999C1 11.4031 1.01856 11.3073 1.05456 11.2183C1.09055 11.1293 1.14325 11.0489 1.20947 10.982L3.92357 8.20338C3.98811 8.13732 4.06435 8.08532 4.14794 8.05034C4.23153 8.01537 4.32083 7.99811 4.41074 7.99955C4.50065 8.001 4.58941 8.02111 4.67195 8.05875C4.75449 8.09639 4.8292 8.15081 4.89181 8.21891C4.95442 8.28702 5.00371 8.36746 5.03685 8.45566C5.06999 8.54386 5.08635 8.63809 5.08498 8.73296C5.08362 8.82783 5.06455 8.92149 5.02888 9.00858C4.99322 9.09568 4.94164 9.17451 4.87709 9.24058L3.37527 10.7776L14.3159 10.7776C14.4974 10.7776 14.6715 10.8537 14.7999 10.9891C14.9283 11.1246 15.0004 11.3083 15.0004 11.4999C15.0004 11.6914 14.9283 11.8751 14.7999 12.0106C14.6715 12.146 14.4974 12.2221 14.3159 12.2221L3.37527 12.2221L4.87709 13.7592C4.94183 13.8251 4.99358 13.9038 5.02936 13.9909C5.06514 14.078 5.08425 14.1717 5.08558 14.2667C5.08692 14.3616 5.07046 14.4558 5.03714 14.544Z" fill="#363739"/>
</svg>
