<svg width="64" height="64" viewBox="0 0 64 64" fill="none" xmlns="http://www.w3.org/2000/svg">
<g clip-path="url(#clip0_217_900)">
<rect width="64" height="64" fill="#FCFEFF"/>
<path d="M31.4782 12.8907C27.9717 12.8907 25.1366 10.0557 25.1366 6.54913C25.1366 3.04259 27.9717 0.20752 31.4782 0.20752C34.9848 0.20752 37.8198 3.04259 37.8198 6.54913C37.8198 10.0557 34.9848 12.8907 31.4782 12.8907ZM43.9376 21.6198C43.0423 17.591 40.2819 14.8305 36.1785 14.8305H26.8526C22.7492 14.8305 19.2427 17.964 18.9442 22.142L17.8251 35.4221C17.7505 36.6904 18.6458 37.8095 19.9887 37.9587H20.3618C21.5555 37.8095 22.4508 36.8396 22.5254 35.7205L23.4953 23.4103C23.5699 23.0373 23.6445 22.2912 24.316 22.2912C24.5398 22.2912 24.9128 22.3658 24.9128 23.2611V61.3108C24.9874 62.8775 26.3303 64.0712 27.8971 63.9966C29.3146 63.922 30.5083 62.7283 30.583 61.3108V39.6747C31.1798 39.6001 31.7767 39.6001 32.4481 39.6747V61.2362C32.5227 62.8029 33.8657 63.9966 35.4324 63.922C36.85 63.8474 38.0437 62.6537 38.1183 61.2362V23.1865C38.1183 22.2912 38.4913 22.2166 38.7151 22.2166C39.3866 22.2166 39.5358 23.1865 39.6104 23.4849L40.9751 35.7205C41.1989 36.8396 42.2434 37.6603 43.4371 37.6603C44.7054 37.5857 45.7499 36.4666 45.6753 35.1983C45.6753 35.049 45.6753 34.8998 45.6007 34.8252L43.9376 21.6198Z" fill="#ED1C24"/>
</g>
<defs>
<clipPath id="clip0_217_900">
<rect width="64" height="64" fill="white"/>
</clipPath>
</defs>
</svg>
