<svg width="64" height="64" viewBox="0 0 64 64" fill="none" xmlns="http://www.w3.org/2000/svg">
<rect width="64" height="64" fill="#FCFEFF"/>
<path d="M22.0022 12.6832C18.4956 12.6832 15.6606 9.84814 15.6606 6.34161C15.6606 2.83507 18.4956 0 22.0022 0C25.5087 0 28.3438 2.83507 28.3438 6.34161C28.3438 9.84814 25.5087 12.6832 22.0022 12.6832ZM34.4616 21.4122C33.5663 17.3835 30.8058 14.623 26.7024 14.623H17.3765C13.2731 14.623 9.7666 17.7565 9.46817 21.9345L8.34906 35.2146C8.27445 36.4829 9.16974 37.602 10.5127 37.7512H10.8857C12.0794 37.602 12.9747 36.6321 13.0493 35.513L14.0192 23.2028C14.0938 22.8298 14.1684 22.0837 14.8399 22.0837C15.0637 22.0837 15.4367 22.1583 15.4367 23.0536V61.1032C15.5113 62.67 16.8543 63.8637 18.421 63.7891C19.8386 63.7145 21.0323 62.5208 21.1069 61.1032V39.4672C21.7037 39.3926 22.3006 39.3926 22.9721 39.4672V61.0286C23.0467 62.5954 24.3896 63.7891 25.9563 63.7145C27.3739 63.6399 28.5676 62.4462 28.6422 61.0286V22.979C28.6422 22.0837 29.0152 22.0091 29.2391 22.0091C29.9105 22.0091 30.0597 22.979 30.1343 23.2774L31.9995 32.6033C32.2233 33.7224 33.2678 34.5431 34.4616 34.5431C35.7299 34.4685 36.7744 33.3494 36.6998 32.0811C36.6998 31.9319 36.6998 31.7826 36.6252 31.708L34.4616 21.4122ZM45.8764 38.1989C48.7861 38.1989 51.0989 35.886 51.0989 32.9764C51.0989 30.0667 48.7861 27.7539 45.8764 27.7539C42.9668 27.7539 40.6539 30.0667 40.6539 32.9764C40.6539 35.886 42.9668 38.1989 45.8764 38.1989Z" fill="#ED1C24"/>
<path d="M54.0838 42.4515C53.4869 41.3324 52.517 40.5118 51.3979 40.0641C50.6519 39.7657 49.9058 39.6165 49.0851 39.6911C47.8168 39.6911 45.1309 39.6911 43.9372 39.5419C43.8626 39.5419 39.983 39.5419 38.1925 36.1099C37.7448 35.2146 36.8495 34.767 35.8797 34.9162C34.7605 35.14 34.0891 36.2591 34.3129 37.3783C34.3129 37.5275 34.3875 37.6767 34.4621 37.8259C35.5812 40.4371 37.8194 42.3769 40.5799 43.123V61.6256C40.5799 62.7447 41.326 63.7146 42.3705 63.9384C43.5642 64.2368 44.7579 63.4161 45.0563 62.2224C45.1309 62.0732 45.1309 61.8494 45.1309 61.7002V51.6282H46.4739V61.6256C46.4739 62.8939 47.5184 63.8638 48.7121 63.8638C49.9058 63.8638 50.9503 62.8193 50.9503 61.6256V44.9136C51.0249 44.6151 51.3233 44.6898 51.4725 45.1374C51.8456 46.1073 52.144 47.0026 52.2186 49.8376C52.2932 50.7329 53.0393 51.479 53.9346 51.479H54.0092C54.9791 51.4044 55.7252 50.5837 55.6505 49.6138C55.6505 47.0026 55.6505 45.212 54.0838 42.4515Z" fill="#ED1C24"/>
</svg>
