<svg width="64" height="64" viewBox="0 0 64 64" fill="none" xmlns="http://www.w3.org/2000/svg">
<path d="M28.3467 16.8994C28.3467 18.004 29.2421 18.8994 30.3467 18.8994H33.6533C34.7579 18.8994 35.6533 18.004 35.6533 16.8994V9.22147C35.6533 8.1169 34.7579 7.22147 33.6533 7.22147H30.3467C29.2421 7.22147 28.3467 8.1169 28.3467 9.22147V16.8994ZM32 36.247C28.42 36.247 24.9578 35.6489 21.6133 34.4527C18.6256 33.3826 15.7463 32.053 12.9755 30.464C12.3666 30.1147 12 29.4617 12 28.7598V20.8994C12 19.7949 12.8954 18.8994 14 18.8994H23.0133C24.1179 18.8994 25.0133 18.004 25.0133 16.8994V6C25.0133 4.89543 25.9088 4 27.0133 4H36.9867C38.0912 4 38.9867 4.89543 38.9867 6V16.8994C38.9867 18.004 39.8821 18.8994 40.9867 18.8994H50C51.1046 18.8994 52 19.7949 52 20.8994V28.7609C52 29.4622 51.634 30.1148 51.0259 30.4641C48.2564 32.0549 45.3767 33.3844 42.3867 34.4527C39.0444 35.6489 35.5822 36.247 32 36.247ZM18.9974 64C18.1078 64 17.3867 63.2789 17.3867 62.3893V62.3893C17.3867 61.4997 16.6655 60.7785 15.7759 60.7785H14C12.8954 60.7785 12 59.8831 12 58.7785V37.0584C12 35.5359 13.6393 34.5631 15.0154 35.2145C16.9214 36.1168 18.8685 36.9012 20.8567 37.5678C23.4153 38.4221 26.0515 38.9966 28.7651 39.2913C29.6463 39.387 30.3333 40.1271 30.3333 41.0135V41.0135C30.3333 41.934 31.0795 42.69 32 42.69V42.69C32.9205 42.69 33.6667 41.934 33.6667 41.0135V41.0135C33.6667 40.1271 34.3537 39.387 35.2349 39.2912C37.9485 38.9963 40.5847 38.4207 43.1433 37.5646C45.1317 36.8998 47.078 36.1165 48.9823 35.2146C50.3591 34.5625 52 35.5353 52 37.0587V58.7785C52 59.8831 51.1046 60.7785 50 60.7785H48.2241C47.3345 60.7785 46.6133 61.4997 46.6133 62.3893V62.3893C46.6133 63.2789 45.8922 64 45.0026 64H44.8907C44.0012 64 43.28 63.2789 43.28 62.3893V62.3893C43.28 61.4997 42.5588 60.7785 41.6693 60.7785H22.3307C21.4412 60.7785 20.72 61.4997 20.72 62.3893V62.3893C20.72 63.2789 19.9989 64 19.1093 64H18.9974Z" fill="#ED1C24"/>
</svg>
