<svg width="64" height="64" viewBox="0 0 64 64" fill="none" xmlns="http://www.w3.org/2000/svg">
<g clip-path="url(#clip0_185_2)">
<path d="M31.9998 26.6667C32.7553 26.6667 33.3891 26.4107 33.9011 25.8987C34.4131 25.3867 34.6682 24.7538 34.6665 24C34.6647 23.2462 34.4087 22.6133 33.8985 22.1013C33.3882 21.5893 32.7553 21.3333 31.9998 21.3333C31.2442 21.3333 30.6113 21.5893 30.1011 22.1013C29.5909 22.6133 29.3349 23.2462 29.3331 24C29.3313 24.7538 29.5873 25.3876 30.1011 25.9013C30.6149 26.4151 31.2478 26.6702 31.9998 26.6667ZM39.5331 26.6667H44.1998C45.5331 26.6667 46.6887 27.1111 47.6665 28C48.6442 28.8889 49.2442 29.9778 49.4665 31.2667L53.2665 57.9333C53.4887 59.5333 53.078 60.9449 52.0345 62.168C50.9909 63.3911 49.646 64.0018 47.9998 64H15.9998C14.3553 64 13.0105 63.3893 11.9651 62.168C10.9198 60.9467 10.5091 59.5351 10.7331 57.9333L14.5331 31.2667C14.7553 29.9778 15.3553 28.8889 16.3331 28C17.3109 27.1111 18.4665 26.6667 19.7998 26.6667H24.4665C24.3331 26.2222 24.222 25.7893 24.1331 25.368C24.0442 24.9467 23.9998 24.4907 23.9998 24C23.9998 21.7778 24.7776 19.8889 26.3331 18.3333C27.8887 16.7778 29.7776 16 31.9998 16C34.222 16 36.1109 16.7778 37.6665 18.3333C39.222 19.8889 39.9998 21.7778 39.9998 24C39.9998 24.4889 39.9553 24.9449 39.8665 25.368C39.7776 25.7911 39.6665 26.224 39.5331 26.6667Z" fill="#ED1C24"/>
</g>
<defs>
<clipPath id="clip0_185_2">
<rect width="64" height="64" fill="white"/>
</clipPath>
</defs>
</svg>
