<svg width="64" height="64" viewBox="0 0 64 64" fill="none" xmlns="http://www.w3.org/2000/svg">
<path d="M31.9305 10.5347C34.8396 10.5347 37.1978 8.17647 37.1978 5.26737C37.1978 2.35828 34.8396 0 31.9305 0C29.0214 0 26.6631 2.35828 26.6631 5.26737C26.6631 8.17647 29.0214 10.5347 31.9305 10.5347Z" fill="#ED1C24"/>
<path d="M44.8617 18.1989C44.8452 14.8989 42.1049 12.2142 38.7533 12.2142H35.4441C36.3353 12.9169 37.0128 13.8787 37.3589 14.9865C37.3706 14.9906 37.382 14.9957 37.3937 15C38.8002 15.4784 39.8315 16.845 39.7785 18.4156V36.884C39.7785 38.2877 40.9165 39.4256 42.3201 39.4256C43.7238 39.4256 44.8617 38.2876 44.8617 36.884V18.1989ZM36.2673 32.9886H27.5946C27.146 32.9888 26.7018 32.8993 26.2882 32.7254C25.8746 32.5515 25.4999 32.2967 25.1861 31.976V60.9497C25.1861 62.6342 26.5381 63.9997 28.2226 63.9997C29.9071 63.9997 31.2726 62.6342 31.2726 60.9497V36.5714H32.5894V60.95C32.5894 62.6345 33.9549 64 35.6394 64C37.3239 64 38.6759 62.6345 38.6759 60.95V31.9762C38.3621 32.2969 37.9874 32.5517 37.5737 32.7255C37.1601 32.8994 36.7159 32.9888 36.2673 32.9886ZM25.1085 12.2142C21.7568 12.2142 19.0165 14.8989 19 18.1989V36.884C19 38.2876 20.138 39.4256 21.5416 39.4256C22.9453 39.4256 24.0832 38.2876 24.0832 36.884V18.7162C23.8734 17.015 24.9654 15.4705 26.5052 14.9789C26.8522 13.8744 27.5285 12.9152 28.4175 12.2141L25.1085 12.2142Z" fill="#ED1C24"/>
<path d="M36.2671 16.6794H35.7396C35.7402 16.0212 35.569 15.3744 35.2431 14.8026C34.5875 13.6501 33.349 12.8706 31.9309 12.8706C30.5128 12.8705 29.2743 13.6501 28.6186 14.8026C28.2927 15.3744 28.1215 16.0212 28.122 16.6794H27.5945C26.7826 16.6794 26.1245 17.3375 26.1245 18.1494V29.6417C26.1245 30.4536 26.7826 31.1117 27.5945 31.1117H36.267C37.0789 31.1117 37.737 30.4536 37.737 29.6417V18.1494C37.7371 17.3375 37.079 16.6794 36.2671 16.6794ZM31.4804 14.8026H32.3814C33.2298 15.0064 33.8629 15.7694 33.8629 16.6794H29.9989C29.9989 15.7694 30.6319 15.0064 31.4804 14.8026ZM33.9744 27.525H29.8871C29.1961 27.525 28.636 26.9649 28.636 26.2739C28.636 25.5829 29.1961 25.0227 29.8871 25.0227H33.9744C34.6654 25.0227 35.2255 25.5829 35.2255 26.2739C35.2255 26.9649 34.6655 27.525 33.9744 27.525Z" fill="#ED1C24"/>
</svg>
