<svg width="72" height="72" viewBox="0 0 72 72" fill="none" xmlns="http://www.w3.org/2000/svg">
<path d="M25.812 65.4727C27.1193 66.7777 28.8585 67.5 30.708 67.5C32.5575 67.5 34.2968 66.78 35.604 65.4727L65.4728 35.604C66.2466 34.8282 66.8257 33.8802 67.1628 32.8376C67.4999 31.795 67.5854 30.6874 67.4123 29.6055L64.7348 13.0005C64.5047 11.5622 63.8263 10.2334 62.7964 9.20353C61.7665 8.17364 60.4377 7.49528 58.9995 7.2652L42.3945 4.5877C41.3125 4.41367 40.2047 4.49871 39.162 4.83586C38.1192 5.17301 37.1713 5.75265 36.396 6.5272L6.52727 36.396C5.88272 37.0377 5.37171 37.8008 5.02375 38.6411C4.67579 39.4815 4.49779 40.3824 4.50002 41.292C4.50002 43.1415 5.22002 44.8785 6.52727 46.1857L25.812 65.4727ZM9.70877 39.5752L39.5775 9.71095C40.1288 9.16195 40.9185 8.90995 41.6768 9.0337L58.2818 11.7112C59.3168 11.8777 60.1245 12.6855 60.291 13.7182L62.9685 30.3232C63.0923 31.0905 62.838 31.8757 62.2913 32.4247L32.4203 62.2912C31.9584 62.7312 31.3449 62.9767 30.7069 62.9767C30.0689 62.9767 29.4554 62.7312 28.9935 62.2912L9.71102 43.0042C9.48502 42.7801 9.30579 42.5133 9.18374 42.2194C9.06169 41.9255 8.99924 41.6102 9.00002 41.292C9.00002 40.644 9.25202 40.032 9.70877 39.5752Z" fill="#ED1C24"/>
<path d="M55.078 19.2172C55.6747 19.2172 56.247 18.9801 56.669 18.5582C57.0909 18.1362 57.328 17.5639 57.328 16.9672C57.328 16.3704 57.0909 15.7981 56.669 15.3762C56.247 14.9542 55.6747 14.7172 55.078 14.7172H55.0555C53.8135 14.7172 52.8167 15.7229 52.8167 16.9672C52.8167 18.2114 53.836 19.2172 55.078 19.2172ZM24.4352 44.3857C24.2153 44.5919 24.0391 44.8402 23.917 45.1159C23.7949 45.3916 23.7295 45.6889 23.7246 45.9904C23.7197 46.2918 23.7754 46.5912 23.8885 46.8707C24.0015 47.1502 24.1696 47.4041 24.3827 47.6174C24.5958 47.8306 24.8496 47.9989 25.129 48.1121C25.4085 48.2254 25.7078 48.2813 26.0092 48.2767C26.3107 48.272 26.6081 48.2068 26.8839 48.0849C27.1596 47.963 27.4081 47.7869 27.6145 47.5672L27.6797 47.5019C28.7912 48.0869 30.004 48.4132 31.2347 48.4132C33.2215 48.4132 35.2172 47.6482 36.736 46.1317C38.1886 44.6873 39.0097 42.7262 39.0197 40.6777C39.0303 39.6658 38.8385 38.6621 38.4556 37.7255C38.0726 36.7889 37.5063 35.9383 36.79 35.2237L36.7855 35.2169C35.5435 33.9772 35.5637 31.9319 36.8305 30.6652C38.0995 29.4007 40.138 29.3782 41.3822 30.6157C42.6242 31.8577 42.6017 33.9007 41.335 35.1674C41.1201 35.375 40.9487 35.6232 40.8307 35.8978C40.7128 36.1723 40.6507 36.4675 40.6481 36.7663C40.6456 37.065 40.7025 37.3613 40.8156 37.6378C40.9287 37.9143 41.0958 38.1655 41.3071 38.3768C41.5183 38.5881 41.7695 38.7551 42.0461 38.8683C42.3226 38.9814 42.6189 39.0383 42.9176 39.0357C43.2164 39.0331 43.5116 38.9711 43.7861 38.8531C44.0606 38.7352 44.3089 38.5638 44.5165 38.3489C45.6806 37.1832 46.4416 35.676 46.6886 34.0472C46.9355 32.4183 46.6553 30.7532 45.889 29.2949L45.952 29.2297C46.1669 29.0221 46.3383 28.7738 46.4562 28.4993C46.5741 28.2248 46.6362 27.9296 46.6388 27.6308C46.6414 27.3321 46.5844 27.0358 46.4713 26.7593C46.3582 26.4828 46.1911 26.2315 45.9798 26.0203C45.7686 25.809 45.5174 25.6419 45.2409 25.5288C44.9643 25.4157 44.6681 25.3588 44.3693 25.3614C44.0706 25.3639 43.7753 25.426 43.5008 25.5439C43.2263 25.6619 42.978 25.8333 42.7705 26.0482L42.7052 26.1134C41.2465 25.3477 39.5814 25.0676 37.9525 25.3141C36.3235 25.5606 34.8158 26.3206 33.649 27.4837C30.6295 30.5077 30.607 35.4037 33.6017 38.3984C34.2002 38.9969 34.5242 39.7957 34.5197 40.6507C34.5141 41.515 34.1662 42.3418 33.5522 42.9502C32.2877 44.2124 30.2447 44.2372 29.0027 42.9974C27.7607 41.7577 27.7832 39.7147 29.0522 38.4479C29.2671 38.2404 29.4385 37.9921 29.5564 37.7176C29.6744 37.4431 29.7364 37.1478 29.739 36.8491C29.7416 36.5503 29.6847 36.254 29.5716 35.9775C29.4584 35.701 29.2914 35.4498 29.0801 35.2385C28.8688 35.0273 28.6176 34.8602 28.3411 34.7471C28.0646 34.6339 27.7683 34.577 27.4696 34.5796C27.1708 34.5822 26.8756 34.6443 26.6011 34.7622C26.3265 34.8801 26.0783 35.0515 25.8707 35.2664C24.7066 36.4321 23.9455 37.9394 23.6986 39.5682C23.4517 41.197 23.7319 42.8621 24.4982 44.3204L24.4352 44.3857Z" fill="#ED1C24"/>
</svg>
