<svg width="72" height="72" viewBox="0 0 72 72" fill="none" xmlns="http://www.w3.org/2000/svg">
<path d="M6.64648 55.9463C6.64946 59.0092 7.86738 61.9459 10.033 64.1119C12.1986 66.2779 15.135 67.4964 18.198 67.5H53.802C56.8649 67.4964 59.8014 66.2779 61.967 64.1119C64.1326 61.9459 65.3505 59.0092 65.3535 55.9463V20.3423C65.3499 17.2797 64.1317 14.3436 61.9662 12.1781C59.8006 10.0125 56.8645 8.79432 53.802 8.79075H50.2785V6.75C50.2785 6.15326 50.0414 5.58097 49.6195 5.15901C49.1975 4.73705 48.6252 4.5 48.0285 4.5C47.4317 4.5 46.8595 4.73705 46.4375 5.15901C46.0155 5.58097 45.7785 6.15326 45.7785 6.75V8.79075H26.2215V6.75C26.2215 6.15326 25.9844 5.58097 25.5625 5.15901C25.1405 4.73705 24.5682 4.5 23.9715 4.5C23.3747 4.5 22.8025 4.73705 22.3805 5.15901C21.9585 5.58097 21.7215 6.15326 21.7215 6.75V8.79075H18.198C15.1354 8.79432 12.1993 10.0125 10.0338 12.1781C7.86823 14.3436 6.65006 17.2797 6.64648 20.3423V55.9463ZM11.1465 20.3423C11.1489 18.4728 11.8926 16.6806 13.2145 15.3587C14.5363 14.0368 16.3285 13.2931 18.198 13.2908H21.7215V15.3293C21.7215 15.926 21.9585 16.4983 22.3805 16.9202C22.8025 17.3422 23.3747 17.5793 23.9715 17.5793C24.5682 17.5793 25.1405 17.3422 25.5625 16.9202C25.9844 16.4983 26.2215 15.926 26.2215 15.3293V13.2908H45.7785V15.3293C45.7785 15.926 46.0155 16.4983 46.4375 16.9202C46.8595 17.3422 47.4317 17.5793 48.0285 17.5793C48.6252 17.5793 49.1975 17.3422 49.6195 16.9202C50.0414 16.4983 50.2785 15.926 50.2785 15.3293V13.2908H53.802C55.6714 13.2931 57.4636 14.0368 58.7855 15.3587C60.1074 16.6806 60.8511 18.4728 60.8535 20.3423V55.9463C60.8517 57.8161 60.1083 59.6089 58.7863 60.9312C57.4643 62.2536 55.6718 62.9976 53.802 63H18.198C16.3282 62.9976 14.5356 62.2536 13.2137 60.9312C11.8917 59.6089 11.1483 57.8161 11.1465 55.9463V20.3423Z" fill="#ED1C24"/>
<path d="M36 55.0193C45.306 55.0193 52.875 47.4503 52.875 38.1443C52.875 28.8383 45.306 21.2693 36 21.2693C26.694 21.2693 19.125 28.8383 19.125 38.1443C19.125 47.4503 26.694 55.0193 36 55.0193ZM36 25.7693C42.8242 25.7693 48.375 31.3223 48.375 38.1443C48.375 44.9663 42.8242 50.5193 36 50.5193C29.1757 50.5193 23.625 44.9663 23.625 38.1443C23.625 31.3223 29.1757 25.7693 36 25.7693Z" fill="#ED1C24"/>
<path d="M36 40.3942H41.6025C42.1992 40.3942 42.7715 40.1572 43.1935 39.7352C43.6154 39.3133 43.8525 38.741 43.8525 38.1442C43.8525 37.5475 43.6154 36.9752 43.1935 36.5533C42.7715 36.1313 42.1992 35.8942 41.6025 35.8942H38.25V32.5417C38.25 31.945 38.0129 31.3727 37.591 30.9508C37.169 30.5288 36.5967 30.2917 36 30.2917C35.4033 30.2917 34.831 30.5288 34.409 30.9508C33.9871 31.3727 33.75 31.945 33.75 32.5417V38.1442C33.75 38.741 33.9871 39.3133 34.409 39.7352C34.831 40.1572 35.4033 40.3942 36 40.3942Z" fill="#ED1C24"/>
</svg>
