<svg width="72" height="72" viewBox="0 0 72 72" fill="none" xmlns="http://www.w3.org/2000/svg">
<path d="M44.3115 48.4425C44.3115 45.2475 45.8122 42.255 48.3255 40.4415C53.6175 36.621 56.5628 30.7057 56.403 24.2145C56.151 13.8487 47.781 5.2087 37.3522 4.54495C31.6012 4.18495 26.1337 6.1267 21.9645 10.035C19.9451 11.9088 18.3359 14.1808 17.2384 16.7077C16.141 19.2345 15.579 21.9613 15.588 24.7162C15.588 30.9712 18.513 36.684 23.6092 40.3942C24.8733 41.3208 25.9013 42.5321 26.61 43.9299C27.3187 45.3278 27.6882 46.8729 27.6885 48.4402C27.6885 49.0369 27.9255 49.6092 28.3475 50.0312C28.7695 50.4532 29.3418 50.6902 29.9385 50.6902H42.0615C42.6582 50.6902 43.2305 50.4532 43.6525 50.0312C44.0744 49.6092 44.3115 49.0369 44.3115 48.4402V48.4425ZM32.013 46.188C31.4163 42.4069 29.347 39.0159 26.2575 36.756C22.2795 33.8602 20.088 29.583 20.088 24.7185C20.088 20.3647 21.8475 16.317 25.0425 13.3177C26.6414 11.811 28.5356 10.6525 30.6053 9.91547C32.675 9.17846 34.8751 8.87897 37.0665 9.03595C45.189 9.55345 51.7095 16.2675 51.9075 24.3247C52.029 29.3085 49.761 33.8535 45.6907 36.7942C44.1664 37.9061 42.8774 39.3089 41.8981 40.9216C40.9187 42.5342 40.2684 44.3249 39.9847 46.1902L32.013 46.188Z" fill="#ED1C24"/>
<path d="M43.9494 18.6052C43.5275 18.1834 42.9553 17.9464 42.3587 17.9464C41.762 17.9464 41.1898 18.1834 40.7679 18.6052L34.2722 25.0987L31.2639 22.0882C31.0564 21.8733 30.8081 21.7019 30.5336 21.584C30.2591 21.466 29.9638 21.404 29.6651 21.4014C29.3663 21.3988 29.07 21.4557 28.7935 21.5688C28.517 21.682 28.2658 21.849 28.0545 22.0603C27.8433 22.2716 27.6762 22.5228 27.5631 22.7993C27.4499 23.0758 27.393 23.3721 27.3956 23.6708C27.3982 23.9696 27.4603 24.2648 27.5782 24.5393C27.6961 24.8138 27.8675 25.0621 28.0824 25.2697L32.6814 29.8709C33.1033 30.2927 33.6755 30.5297 34.2722 30.5297C34.8688 30.5297 35.441 30.2927 35.8629 29.8709L43.9494 21.7867C44.3712 21.3647 44.6082 20.7925 44.6082 20.1959C44.6082 19.5993 44.3712 19.0271 43.9494 18.6052ZM30.6632 54.0674C30.0664 54.0674 29.4941 54.3045 29.0722 54.7264C28.6502 55.1484 28.4132 55.7207 28.4132 56.3174V60.0029C28.4132 64.1362 31.7769 67.4999 35.9102 67.4999C40.0434 67.4999 43.4072 64.1362 43.4072 60.0029V56.3152C43.4072 55.7184 43.1701 55.1461 42.7481 54.7242C42.3262 54.3022 41.7539 54.0652 41.1572 54.0652L30.6632 54.0674ZM38.9072 60.0029C38.9072 61.6544 37.5617 62.9999 35.9102 62.9999C34.2587 62.9999 32.9132 61.6544 32.9132 60.0029V58.5652H38.9072V60.0029Z" fill="#ED1C24"/>
</svg>
