<svg width="72" height="72" viewBox="0 0 72 72" fill="none" xmlns="http://www.w3.org/2000/svg">
<path d="M8.00098 16.6523V31.3673C7.99873 46.971 17.7817 61.2225 32.3505 66.825C34.7 67.7305 37.3022 67.7305 39.6517 66.825L41.8342 65.9835C55.3005 60.804 64.0012 47.781 63.999 32.8028V16.6523C63.9989 16.0712 63.7739 15.5127 63.3713 15.0937C62.9687 14.6747 62.4196 14.4278 61.839 14.4045C53.7502 14.0895 45.504 10.9035 37.3275 4.93203C36.9419 4.65111 36.4771 4.49976 36 4.49976C35.5229 4.49976 35.0581 4.65111 34.6725 4.93203C26.4937 10.9035 18.2475 14.0895 10.1632 14.4045C9.58183 14.4272 9.03183 14.6743 8.62867 15.0938C8.2255 15.5133 8.00053 16.0704 8.00098 16.6523ZM12.501 18.7583C20.34 18.0158 28.2285 14.9153 36 9.51078C43.7692 14.9153 51.66 18.0158 59.499 18.7583V32.8005C59.5012 45.9 51.9345 57.276 40.2187 61.7805L38.0362 62.622C36.7258 63.1276 35.2741 63.1276 33.9637 62.622C21.1252 57.6833 12.4987 45.1238 12.4987 31.3695V18.756L12.501 18.7583Z" fill="#ED1C24"/>
<path d="M31.3915 45.2925C31.8135 45.7144 32.3857 45.9513 32.9823 45.9513C33.5789 45.9513 34.1511 45.7144 34.573 45.2925L48.568 31.2998C48.7829 31.0922 48.9543 30.844 49.0723 30.5695C49.1902 30.2949 49.2523 29.9997 49.2549 29.7009C49.2575 29.4022 49.2005 29.1059 49.0874 28.8294C48.9743 28.5529 48.8072 28.3017 48.5959 28.0904C48.3847 27.8791 48.1335 27.7121 47.8569 27.5989C47.5804 27.4858 47.2841 27.4289 46.9854 27.4315C46.6866 27.4341 46.3914 27.4961 46.1169 27.6141C45.8424 27.732 45.5941 27.9034 45.3865 28.1183L32.9823 40.5225L26.6148 34.1505C26.4059 33.9415 26.1579 33.7756 25.8849 33.6624C25.6119 33.5493 25.3192 33.4909 25.0237 33.4908C24.7282 33.4907 24.4355 33.5488 24.1624 33.6618C23.8894 33.7748 23.6412 33.9405 23.4322 34.1494C23.2231 34.3583 23.0573 34.6063 22.9441 34.8793C22.8309 35.1523 22.7726 35.445 22.7725 35.7405C22.7724 36.036 22.8305 36.3287 22.9435 36.6018C23.0565 36.8749 23.2221 37.123 23.431 37.332L31.3915 45.2925Z" fill="#ED1C24"/>
</svg>
