<svg width="72" height="72" viewBox="0 0 72 72" fill="none" xmlns="http://www.w3.org/2000/svg">
<path d="M60.75 19.125H49.5V14.625C49.5 10.9035 46.4715 7.875 42.75 7.875H29.25C25.5285 7.875 22.5 10.9035 22.5 14.625V19.125H11.25C7.5285 19.125 4.5 22.1535 4.5 25.875V57.375C4.5 61.0965 7.5285 64.125 11.25 64.125H60.75C64.4715 64.125 67.5 61.0965 67.5 57.375V25.875C67.5 22.1535 64.4715 19.125 60.75 19.125ZM27 14.625C27 14.0283 27.2371 13.456 27.659 13.034C28.081 12.6121 28.6533 12.375 29.25 12.375H42.75C43.3467 12.375 43.919 12.6121 44.341 13.034C44.7629 13.456 45 14.0283 45 14.625V19.125H27V14.625ZM63 57.375C63 57.9717 62.7629 58.544 62.341 58.966C61.919 59.3879 61.3467 59.625 60.75 59.625H11.25C10.6533 59.625 10.081 59.3879 9.65901 58.966C9.23705 58.544 9 57.9717 9 57.375V25.875C9 25.2783 9.23705 24.706 9.65901 24.284C10.081 23.8621 10.6533 23.625 11.25 23.625H60.75C61.3467 23.625 61.919 23.8621 62.341 24.284C62.7629 24.706 63 25.2783 63 25.875V57.375Z" fill="#ED1C24"/>
<path d="M54.8685 28.5975L36 43.2765L17.1315 28.602C16.6595 28.2511 16.0689 28.0989 15.4861 28.1782C14.9032 28.2574 14.3746 28.5616 14.0134 29.0258C13.6522 29.49 13.4871 30.0772 13.5534 30.6616C13.6198 31.246 13.9124 31.7812 14.3685 32.1525L34.6185 47.9025C35.0132 48.2105 35.4994 48.3778 36 48.3778C36.5006 48.3778 36.9869 48.2105 37.3815 47.9025L57.6315 32.1525C57.872 31.9738 58.0743 31.7488 58.2266 31.4907C58.379 31.2327 58.4782 30.9468 58.5186 30.6499C58.5589 30.353 58.5396 30.0511 58.4616 29.7617C58.3837 29.4724 58.2488 29.2016 58.0648 28.9651C57.8807 28.7286 57.6513 28.5313 57.39 28.3847C57.1287 28.2381 56.8407 28.1451 56.543 28.1113C56.2453 28.0775 55.9438 28.1035 55.6563 28.1877C55.3687 28.272 55.1009 28.4129 54.8685 28.602V28.5975Z" fill="#ED1C24"/>
</svg>
