<svg width="72" height="72" viewBox="0 0 72 72" fill="none" xmlns="http://www.w3.org/2000/svg">
<path d="M57.9533 26.595C55.773 16.7895 44.7277 9.297 31.437 9.297C16.5825 9.297 4.5 18.6412 4.5 30.1275C4.5 36.4342 8.18775 42.381 14.445 46.3117L12.249 56.439C12.1512 56.8872 12.1927 57.3546 12.368 57.7786C12.5433 58.2025 12.844 58.5628 13.2298 58.811C13.6156 59.0592 14.0681 59.1836 14.5266 59.1674C14.9851 59.1512 15.4276 58.9953 15.795 58.7205L26.2125 50.9535L30.96 50.9557C34.7895 54.3532 40.3875 56.5087 46.629 56.5087L50.3843 56.5042L58.095 62.2552C58.4619 62.53 58.9041 62.686 59.3623 62.702C59.8204 62.7181 60.2725 62.5936 60.6577 62.3452C61.0435 62.0975 61.3444 61.7379 61.5201 61.3145C61.6958 60.891 61.738 60.4241 61.641 59.976L60.066 52.7085C64.7482 49.6417 67.5 45.081 67.5 40.2412C67.5 34.5262 63.6885 29.4975 57.9533 26.595ZM56.4503 49.6305C56.0228 49.8627 55.6822 50.2272 55.4793 50.6694C55.2765 51.1116 55.2225 51.6075 55.3253 52.083L55.9688 55.0575L52.4722 52.4497C52.0842 52.1603 51.6131 52.0041 51.129 52.0042H51.1267L46.6267 52.0087C43.7045 52.0245 40.8104 51.4362 38.1263 50.2807C49.0028 48.1162 57.24 40.842 58.2503 31.9657C61.1842 34.092 63 37.017 63 40.2412C63 43.8907 60.552 47.4007 56.4503 49.6305ZM24.1245 46.899L17.9213 51.5227L19.188 45.6727C19.2913 45.1969 19.2375 44.7005 19.0347 44.2579C18.8318 43.8152 18.4909 43.4504 18.063 43.218C12.3885 40.131 9 35.2372 9 30.1275C9 21.123 19.0665 13.797 31.437 13.797C43.8075 13.797 53.8695 21.123 53.8695 30.1275C53.8695 39.132 43.8075 46.4557 31.437 46.4557L25.47 46.4535C24.9852 46.4528 24.5131 46.6091 24.1245 46.899Z" fill="#ED1C24"/>
<path d="M31.4365 36.2813C32.0333 36.2813 32.6056 36.0442 33.0275 35.6222C33.4495 35.2003 33.6865 34.628 33.6865 34.0313C33.6865 33.4345 33.4495 32.8622 33.0275 32.4403C32.6056 32.0183 32.0333 31.7813 31.4365 31.7813H22.4365C21.8398 31.7813 21.2675 32.0183 20.8455 32.4403C20.4236 32.8622 20.1865 33.4345 20.1865 34.0313C20.1865 34.628 20.4236 35.2003 20.8455 35.6222C21.2675 36.0442 21.8398 36.2813 22.4365 36.2813H31.4365ZM22.4365 28.4738H40.4365C41.0333 28.4738 41.6056 28.2367 42.0275 27.8147C42.4495 27.3928 42.6865 26.8205 42.6865 26.2238C42.6865 25.627 42.4495 25.0547 42.0275 24.6328C41.6056 24.2108 41.0333 23.9738 40.4365 23.9738H22.4365C21.8398 23.9738 21.2675 24.2108 20.8455 24.6328C20.4236 25.0547 20.1865 25.627 20.1865 26.2238C20.1865 26.8205 20.4236 27.3928 20.8455 27.8147C21.2675 28.2367 21.8398 28.4738 22.4365 28.4738Z" fill="#ED1C24"/>
</svg>
