<svg width="16" height="16" viewBox="0 0 16 16" fill="none" xmlns="http://www.w3.org/2000/svg">
<path d="M13.4151 15H2.58513C2.37967 14.9954 2.17735 14.9487 1.9907 14.8627C1.80406 14.7767 1.63708 14.6532 1.50013 14.5C1.3592 14.3467 1.25174 14.1657 1.1846 13.9685C1.11745 13.7714 1.09209 13.5625 1.11013 13.355C1.22848 12.0315 1.79163 10.7871 2.70778 9.82464C3.62393 8.86218 4.83907 8.23841 6.15513 8.05499C6.28774 8.03775 6.42176 8.0739 6.52772 8.15547C6.63368 8.23705 6.70289 8.35738 6.72013 8.48999C6.73737 8.6226 6.70122 8.75662 6.61965 8.86258C6.53807 8.96854 6.41774 9.03775 6.28513 9.05499C5.18897 9.20429 4.1763 9.72236 3.41383 10.5239C2.65135 11.3255 2.1845 12.3627 2.09013 13.465C2.08364 13.5347 2.09186 13.605 2.11425 13.6713C2.13665 13.7376 2.17272 13.7985 2.22013 13.85C2.26675 13.9003 2.32321 13.9404 2.386 13.9679C2.44879 13.9955 2.51657 14.0098 2.58513 14.01H13.4151C13.5477 14.01 13.6749 13.9573 13.7687 13.8635C13.8625 13.7698 13.9151 13.6426 13.9151 13.51C13.9125 13.4817 13.9125 13.4533 13.9151 13.425C13.813 12.3296 13.3426 11.3011 12.5808 10.5074C11.8189 9.71375 10.8105 9.20176 9.72013 9.05499C9.65447 9.04645 9.59113 9.02507 9.53374 8.99206C9.47634 8.95904 9.42601 8.91505 9.38561 8.86258C9.34522 8.81012 9.31556 8.75021 9.29832 8.68628C9.28107 8.62235 9.27659 8.55565 9.28513 8.48999C9.29367 8.42433 9.31505 8.36099 9.34806 8.3036C9.38108 8.2462 9.42507 8.19587 9.47754 8.15547C9.53 8.11508 9.58991 8.08542 9.65384 8.06818C9.71777 8.05093 9.78447 8.04645 9.85013 8.05499C11.1716 8.23698 12.3921 8.86255 13.3115 9.82915C14.2308 10.7957 14.7945 12.046 14.9101 13.375V13.5C14.9101 13.897 14.7528 14.2777 14.4726 14.5589C14.1923 14.84 13.8121 14.9987 13.4151 15Z" fill="#F1F8FD"/>
<path d="M8 9.5C7.15943 9.5 6.33774 9.25074 5.63883 8.78375C4.93992 8.31675 4.39519 7.65299 4.07351 6.87641C3.75184 6.09982 3.66768 5.24529 3.83166 4.42087C3.99565 3.59645 4.40042 2.83917 4.9948 2.2448C5.58917 1.65043 6.34645 1.24565 7.17087 1.08166C7.99529 0.917677 8.84982 1.00184 9.62641 1.32351C10.403 1.64519 11.0668 2.18992 11.5337 2.88883C12.0007 3.58774 12.25 4.40943 12.25 5.25C12.2487 6.37677 11.8005 7.457 11.0037 8.25374C10.207 9.05049 9.12677 9.49868 8 9.5ZM8 2C7.35721 2 6.72886 2.19061 6.1944 2.54773C5.65994 2.90484 5.24338 3.41242 4.99739 4.00628C4.75141 4.60014 4.68705 5.25361 4.81245 5.88405C4.93785 6.51448 5.24738 7.09358 5.7019 7.5481C6.15643 8.00262 6.73552 8.31215 7.36596 8.43755C7.9964 8.56296 8.64986 8.4986 9.24372 8.25261C9.83758 8.00663 10.3452 7.59006 10.7023 7.0556C11.0594 6.52115 11.25 5.89279 11.25 5.25C11.2487 4.38845 10.9058 3.56257 10.2966 2.95337C9.68743 2.34416 8.86155 2.00132 8 2Z" fill="#F1F8FD"/>
</svg>
