<svg width="16" height="16" viewBox="0 0 16 16" fill="none" xmlns="http://www.w3.org/2000/svg">
<path d="M14.465 4.03C14.3241 3.8638 14.1487 3.73029 13.9509 3.63876C13.7532 3.54723 13.5379 3.49988 13.32 3.5H4.36L4.14 2.24C4.07878 1.89215 3.89677 1.57705 3.62603 1.35022C3.3553 1.12339 3.0132 0.999366 2.66 1H1.5C1.36739 1 1.24021 1.05268 1.14645 1.14645C1.05268 1.24022 1 1.36739 1 1.5C1 1.63261 1.05268 1.75979 1.14645 1.85356C1.24021 1.94732 1.36739 2 1.5 2H2.66C2.77912 1.99827 2.89494 2.03913 2.9866 2.11521C3.07827 2.19129 3.13976 2.29761 3.16 2.415L4.36 9.26C4.42178 9.61128 4.60671 9.92904 4.8816 10.1563C5.1565 10.3835 5.50338 10.5054 5.86 10.5H12.655C13.0138 10.5048 13.3624 10.3808 13.6377 10.1506C13.9129 9.92032 14.0964 9.59903 14.155 9.245L14.825 5.245C14.8573 5.02848 14.8418 4.80752 14.7796 4.59762C14.7174 4.38772 14.61 4.19398 14.465 4.03ZM13.145 9.08C13.1258 9.19832 13.0648 9.30581 12.973 9.3829C12.8813 9.45999 12.7648 9.50154 12.645 9.5H5.84C5.72088 9.50173 5.60506 9.46088 5.5134 9.3848C5.42173 9.30871 5.36024 9.2024 5.34 9.085L4.535 4.5H13.32C13.393 4.49906 13.4653 4.5141 13.5318 4.54408C13.5983 4.57405 13.6575 4.61822 13.7052 4.67349C13.7528 4.72876 13.7878 4.7938 13.8076 4.86402C13.8275 4.93425 13.8317 5.00797 13.82 5.08L13.145 9.08ZM11.75 11.5C11.4039 11.5 11.0655 11.6026 10.7778 11.7949C10.49 11.9872 10.2657 12.2605 10.1332 12.5803C10.0008 12.9001 9.9661 13.2519 10.0336 13.5914C10.1011 13.9309 10.2678 14.2427 10.5126 14.4874C10.7573 14.7322 11.0691 14.8989 11.4086 14.9664C11.7481 15.0339 12.0999 14.9992 12.4197 14.8668C12.7395 14.7343 13.0128 14.51 13.2051 14.2223C13.3974 13.9345 13.5 13.5961 13.5 13.25C13.5 12.7859 13.3156 12.3408 12.9874 12.0126C12.6592 11.6844 12.2141 11.5 11.75 11.5ZM11.75 14C11.6017 14 11.4567 13.956 11.3333 13.8736C11.21 13.7912 11.1139 13.6741 11.0571 13.537C11.0003 13.4 10.9855 13.2492 11.0144 13.1037C11.0434 12.9582 11.1148 12.8246 11.2197 12.7197C11.3246 12.6148 11.4582 12.5434 11.6037 12.5144C11.7492 12.4855 11.9 12.5003 12.037 12.5571C12.1741 12.6139 12.2912 12.71 12.3736 12.8333C12.456 12.9567 12.5 13.1017 12.5 13.25C12.5 13.4489 12.421 13.6397 12.2803 13.7803C12.1397 13.921 11.9489 14 11.75 14ZM6.75 11.5C6.40388 11.5 6.06554 11.6026 5.77775 11.7949C5.48997 11.9872 5.26566 12.2605 5.13321 12.5803C5.00076 12.9001 4.9661 13.2519 5.03363 13.5914C5.10115 13.9309 5.26782 14.2427 5.51256 14.4874C5.75731 14.7322 6.06913 14.8989 6.40859 14.9664C6.74806 15.0339 7.09993 14.9992 7.4197 14.8668C7.73947 14.7343 8.01278 14.51 8.20507 14.2223C8.39736 13.9345 8.5 13.5961 8.5 13.25C8.5 12.7859 8.31563 12.3408 7.98744 12.0126C7.65925 11.6844 7.21413 11.5 6.75 11.5ZM6.75 14C6.60166 14 6.45666 13.956 6.33332 13.8736C6.20999 13.7912 6.11386 13.6741 6.05709 13.537C6.00032 13.4 5.98547 13.2492 6.01441 13.1037C6.04335 12.9582 6.11478 12.8246 6.21967 12.7197C6.32456 12.6148 6.4582 12.5434 6.60368 12.5144C6.74917 12.4855 6.89997 12.5003 7.03701 12.5571C7.17406 12.6139 7.29119 12.71 7.3736 12.8333C7.45601 12.9567 7.5 13.1017 7.5 13.25C7.5 13.4489 7.42098 13.6397 7.28033 13.7803C7.13968 13.921 6.94891 14 6.75 14Z" fill="#363739"/>
</svg>
