<svg width="16" height="16" viewBox="0 0 16 16" fill="none" xmlns="http://www.w3.org/2000/svg">
<path d="M8 12C5.8 12 4 10.2 4 8C4 5.8 5.8 4 8 4C10.2 4 12 5.8 12 8C12 10.2 10.2 12 8 12ZM8 5.33333C6.53333 5.33333 5.33333 6.53333 5.33333 8C5.33333 9.46667 6.53333 10.6667 8 10.6667C9.46667 10.6667 10.6667 9.46667 10.6667 8C10.6667 6.53333 9.46667 5.33333 8 5.33333Z" fill="#363739"/>
<path d="M8.00007 14C4.35439 14 1.15442 11.672 0.0344248 8.192C-0.0114749 8.06854 -0.0114749 7.93146 0.0344248 7.808C1.15442 4.34 4.36582 2 8.00007 2C11.6343 2 14.8457 4.328 15.9657 7.808C16.0114 7.928 16.0114 8.072 15.9657 8.192C14.8457 11.66 11.6343 14 8.00007 14ZM1.17727 8C2.19441 10.88 4.91438 12.8 8.00007 12.8C11.0858 12.8 13.7943 10.88 14.8229 8C13.8057 5.12 11.0858 3.2 8.00007 3.2C4.91438 3.2 2.20583 5.12 1.17727 8Z" fill="#363739"/>
</svg>
