<svg width="72" height="72" viewBox="0 0 72 72" fill="none" xmlns="http://www.w3.org/2000/svg">
<path d="M43 56L58.75 56C61.6445 56 64 53.7567 64 51L64 36C64 33.2433 61.6445 31 58.75 31L51.6853 31L54.3418 17.9833C54.3908 17.7422 54.3832 17.4938 54.3196 17.2557C54.256 17.0177 54.138 16.796 53.974 16.6065C53.8099 16.417 53.6039 16.2644 53.3707 16.1595C53.1375 16.0547 52.8829 16.0002 52.625 16L46.955 16C45.4325 16 44.0815 16.9483 43.6195 18.3217L38.527 29.83C38.4973 29.8967 38.4728 29.9633 38.4518 30.03C37.9863 31.6283 37.75 33.28 37.75 34.9383L37.75 51C37.75 53.7567 40.1055 56 43 56ZM13.25 56L29 56C31.8945 56 34.25 53.7567 34.25 51L34.25 36C34.25 33.2433 31.8945 31 29 31L21.9352 31L24.5918 17.9833C24.6417 17.7421 24.6349 17.4933 24.5717 17.2549C24.5085 17.0165 24.3905 16.7944 24.2263 16.6047C24.062 16.415 23.8557 16.2623 23.622 16.1577C23.3883 16.0532 23.1332 15.9993 22.875 16L17.205 16C15.6825 16 14.3297 16.9483 13.8712 18.3217L8.77525 29.83C8.74725 29.8967 8.72275 29.9633 8.70175 30.0317C8.23625 31.63 8 33.2817 8 34.9383L8 51C8 53.7567 10.3555 56 13.25 56Z" fill="#ED1C24"/>
</svg>
