<svg width="16" height="16" viewBox="0 0 16 16" fill="none" xmlns="http://www.w3.org/2000/svg">
<g clip-path="url(#clip0_990_1045)">
<path d="M15.3846 15.9877C15.3039 15.9887 15.2239 15.9728 15.1497 15.9411C15.0755 15.9093 15.0088 15.8624 14.9538 15.8034L0.184615 1.05684C-0.0615385 0.81106 -0.0615385 0.430108 0.184615 0.184332C0.430769 -0.0614439 0.812308 -0.0614439 1.05846 0.184332L15.8154 14.9432C16.0615 15.1889 16.0615 15.5699 15.8154 15.8157C15.6923 15.9386 15.5323 16 15.3846 16V15.9877Z" fill="#363739"/>
<path d="M8 12C5.8 12 4 10.2 4 8C4 5.8 5.8 4 8 4C10.2 4 12 5.8 12 8C12 10.2 10.2 12 8 12ZM8 5.33333C6.53333 5.33333 5.33333 6.53333 5.33333 8C5.33333 9.46667 6.53333 10.6667 8 10.6667C9.46667 10.6667 10.6667 9.46667 10.6667 8C10.6667 6.53333 9.46667 5.33333 8 5.33333Z" fill="#363739"/>
<path d="M8.00007 14C4.35439 14 1.15442 11.672 0.0344248 8.192C-0.0114749 8.06854 -0.0114749 7.93146 0.0344248 7.808C1.15442 4.34 4.36582 2 8.00007 2C11.6343 2 14.8457 4.328 15.9657 7.808C16.0114 7.928 16.0114 8.072 15.9657 8.192C14.8457 11.66 11.6343 14 8.00007 14ZM1.17727 8C2.19441 10.88 4.91438 12.8 8.00007 12.8C11.0858 12.8 13.7943 10.88 14.8229 8C13.8057 5.12 11.0858 3.2 8.00007 3.2C4.91438 3.2 2.20583 5.12 1.17727 8Z" fill="#363739"/>
</g>
<defs>
<clipPath id="clip0_990_1045">
<rect width="16" height="16" fill="white"/>
</clipPath>
</defs>
</svg>
