<svg width="24" height="24" viewBox="0 0 24 24" fill="none" xmlns="http://www.w3.org/2000/svg">
<path d="M20.25 3.75H3.75C3.15326 3.75 2.58097 3.98705 2.15901 4.40901C1.73705 4.83097 1.5 5.40326 1.5 6V18C1.5 18.5967 1.73705 19.169 2.15901 19.591C2.58097 20.0129 3.15326 20.25 3.75 20.25H20.25C20.8467 20.25 21.419 20.0129 21.841 19.591C22.2629 19.169 22.5 18.5967 22.5 18V6C22.5 5.40326 22.2629 4.83097 21.841 4.40901C21.419 3.98705 20.8467 3.75 20.25 3.75ZM3 6.18L8.6175 11.385L3 17.5575V6.18ZM12.51 12C12.3713 12.1286 12.1891 12.2001 12 12.2001C11.8109 12.2001 11.6287 12.1286 11.49 12L4.2075 5.25H19.7925L12.51 12ZM9.75 12.405L10.5 13.1025C10.9161 13.4884 11.4626 13.7028 12.03 13.7028C12.5974 13.7028 13.1439 13.4884 13.56 13.1025L14.31 12.405L20.055 18.75H3.945L9.75 12.405ZM15.42 11.385L21 6.18V17.5575L15.42 11.385Z" fill="#F1F8FD"/>
</svg>
