<svg width="24" height="24" viewBox="0 0 24 24" fill="none" xmlns="http://www.w3.org/2000/svg">
<path d="M18.2596 13.01C17.8772 12.629 17.3594 12.415 16.8196 12.415C16.2798 12.415 15.762 12.629 15.3796 13.01L14.3446 14.045C13.3492 13.6433 12.445 13.0451 11.686 12.2861C10.927 11.5271 10.3288 10.6229 9.92708 9.62753L10.9921 8.62253C11.3731 8.24016 11.5871 7.72235 11.5871 7.18253C11.5871 6.64272 11.3731 6.1249 10.9921 5.74253L8.74208 3.45503C8.35844 3.07353 7.83938 2.85938 7.29833 2.85938C6.75729 2.85938 6.23823 3.07353 5.85458 3.45503L3.83708 5.42003C3.36467 5.88973 3.04473 6.49086 2.91898 7.14506C2.79322 7.79925 2.86749 8.47616 3.13208 9.08753C5.39395 14.387 9.61511 18.6082 14.9146 20.87C15.5254 21.1378 16.2031 21.2137 16.858 21.0878C17.5129 20.9619 18.1141 20.6401 18.5821 20.165L20.5471 18.2075C20.9286 17.8239 21.1427 17.3048 21.1427 16.7638C21.1427 16.2227 20.9286 15.7037 20.5471 15.32L18.2596 13.01ZM19.4821 17.12L17.5246 19.0775C17.266 19.337 16.9354 19.5129 16.5757 19.5824C16.2161 19.652 15.8438 19.6119 15.5071 19.4675C10.5673 17.3653 6.62705 13.4412 4.50458 8.51003C4.36018 8.17335 4.32015 7.80107 4.38969 7.44138C4.45922 7.08169 4.6351 6.75115 4.89458 6.49253L6.85208 4.52003C6.9035 4.46937 6.96443 4.42937 7.03136 4.40234C7.09829 4.37531 7.1699 4.36178 7.24208 4.36253C7.31312 4.36194 7.38356 4.37558 7.44925 4.40262C7.51494 4.42967 7.57456 4.46959 7.62458 4.52003L9.87458 6.77003C9.97351 6.86977 10.029 7.00456 10.029 7.14503C10.029 7.28551 9.97351 7.4203 9.87458 7.52003L8.53208 8.93753C8.43697 9.03453 8.36999 9.15553 8.33829 9.28762C8.30658 9.41972 8.31135 9.55794 8.35208 9.68753C8.81744 11.0705 9.59649 12.3271 10.6283 13.3588C11.6601 14.3906 12.9166 15.1697 14.2996 15.635C14.4292 15.6758 14.5674 15.6805 14.6995 15.6488C14.8316 15.6171 14.9526 15.5501 15.0496 15.455L16.4221 14.09C16.5227 13.9929 16.6572 13.9386 16.7971 13.9386C16.937 13.9386 17.0714 13.9929 17.1721 14.09L19.4221 16.34C19.4835 16.3863 19.5343 16.4452 19.5712 16.5127C19.608 16.5802 19.63 16.6547 19.6357 16.7314C19.6413 16.8081 19.6306 16.8851 19.6041 16.9573C19.5776 17.0295 19.536 17.0952 19.4821 17.15V17.12Z" fill="#363739"/>
</svg>
