<svg width="24" height="24" viewBox="0 0 24 24" fill="none" xmlns="http://www.w3.org/2000/svg">
<g clip-path="url(#clip0_174_2)">
<path fill-rule="evenodd" clip-rule="evenodd" d="M15.5296 16.5827C15.5357 16.5912 15.5253 16.5766 15.5296 16.5827C15.5137 16.5611 15.4975 16.5397 15.4809 16.5187C15.4272 16.4511 15.3706 16.3859 15.3113 16.3232C15.1654 16.1685 14.9508 15.9699 14.6611 15.7736C14.0761 15.3772 13.1983 15 12.0001 15C10.802 15 9.92417 15.3772 9.33913 15.7736C9.04944 15.9699 8.83485 16.1685 8.68897 16.3232C8.62965 16.3859 8.57307 16.4511 8.51938 16.5187C8.49922 16.5442 8.53175 16.5018 8.51938 16.5187L8.44503 16.6191C8.34626 16.7652 8.30215 16.9415 8.32046 17.1169C8.33876 17.2924 8.4183 17.4557 8.54511 17.5783L11.4788 20.4142C11.7695 20.6953 12.2307 20.6953 12.5214 20.4142L15.4551 17.5783C15.582 17.4557 15.6615 17.2924 15.6798 17.1169C15.6981 16.9415 15.654 16.7652 15.5553 16.6191L15.5296 16.5827Z" fill="#ED1C24"/>
<path fill-rule="evenodd" clip-rule="evenodd" d="M19.7383 12.6498C19.732 12.6396 19.7104 12.6045 19.7002 12.5888C19.6729 12.547 19.6446 12.5057 19.6154 12.4651C19.5427 12.3638 19.4367 12.2263 19.2938 12.065C19.0079 11.7425 18.5737 11.3243 17.9617 10.9102C16.7303 10.0767 14.8109 9.28125 11.9999 9.28125C9.18895 9.28125 7.26951 10.0767 6.03806 10.9102C5.4261 11.3243 4.9919 11.7425 4.70601 12.065C4.56309 12.2263 4.4571 12.3638 4.3844 12.4651C4.35519 12.5057 4.32691 12.547 4.29956 12.5888C4.28943 12.6045 4.2812 12.6175 4.27485 12.6277L4.26149 12.6498C4.17563 12.7951 4.14131 12.9652 4.16409 13.1325C4.18687 13.2997 4.26542 13.4544 4.38703 13.5715L6.04218 15.1653C6.11473 15.2351 6.2006 15.2897 6.29468 15.3256C6.38876 15.3616 6.48912 15.3782 6.58977 15.3745C6.69041 15.3709 6.78929 15.3469 6.8805 15.3042C6.9717 15.2615 7.05337 15.2009 7.12063 15.1259L7.12978 15.1161C7.13948 15.1058 7.15626 15.0884 7.18012 15.0647C7.25314 14.9928 7.32867 14.9234 7.40657 14.8568C7.61292 14.6794 7.92656 14.4374 8.34196 14.1939C9.17137 13.7079 10.4011 13.2188 11.9999 13.2188C13.5987 13.2188 14.8284 13.7079 15.6578 14.1939C16.0732 14.4374 16.3869 14.6794 16.5932 14.8568C16.6711 14.9234 16.7467 14.9928 16.8197 15.0647C16.8399 15.0848 16.8597 15.1051 16.8792 15.1259L16.8789 15.1256L16.8783 15.1249M16.8783 15.1249L16.8795 15.1263C16.9468 15.2012 17.0285 15.2617 17.1197 15.3044C17.2109 15.347 17.3097 15.3709 17.4103 15.3745C17.5109 15.3782 17.6112 15.3615 17.7052 15.3256C17.7993 15.2896 17.8851 15.2351 17.9576 15.1653L19.6128 13.5715C19.7344 13.4544 19.8129 13.2997 19.8357 13.1325C19.8585 12.9652 19.8242 12.7951 19.7383 12.6498" fill="#ED1C24"/>
<path d="M23.8113 8.49675C23.8274 8.51827 23.8667 8.57311 23.8667 8.57311C23.9679 8.71927 24.0138 8.89661 23.9964 9.07352C23.979 9.25043 23.8993 9.4154 23.7716 9.53902L22.0517 11.2031C21.9779 11.2745 21.8902 11.33 21.794 11.3661C21.6978 11.4023 21.5953 11.4183 21.4927 11.4131C21.3901 11.408 21.2896 11.3818 21.1975 11.3363C21.1055 11.2907 21.0237 11.2267 20.9574 11.1482L20.9573 11.1481L20.9533 11.1435C20.949 11.1385 20.9415 11.1299 20.9307 11.1178C20.8969 11.0801 20.8626 11.0429 20.8277 11.0063C20.7335 10.9071 20.5889 10.7611 20.3951 10.5839C20.0072 10.2291 19.4253 9.75122 18.6609 9.2723C17.1328 8.31488 14.8866 7.35938 12 7.35938C9.11347 7.35938 6.86727 8.31488 5.33919 9.2723C4.5748 9.75122 3.99285 10.2291 3.60495 10.5839C3.41122 10.7611 3.26652 10.9071 3.17235 11.0063C3.13747 11.0429 3.10313 11.0801 3.06936 11.1178C3.05858 11.1299 3.05105 11.1385 3.04677 11.1435L3.04456 11.146L3.04316 11.1476L3.04297 11.1479L3.04278 11.1481L3.0426 11.1483C2.97627 11.2267 2.89454 11.2907 2.80247 11.3363C2.71041 11.3818 2.60996 11.408 2.50736 11.4131C2.40476 11.4183 2.30221 11.4023 2.20605 11.3661C2.10989 11.33 2.02217 11.2745 1.94835 11.2031L0.228502 9.53902C0.100743 9.41541 0.0210428 9.25044 0.0036145 9.07353C-0.0138138 8.89662 0.0321629 8.71927 0.133345 8.57311L0.133861 8.57236L0.13447 8.57156L0.135877 8.56955L0.13958 8.56425L0.15083 8.54845C0.160048 8.53555 0.172689 8.51831 0.188752 8.49675C0.220908 8.45363 0.266892 8.39367 0.326986 8.31928C0.447127 8.1705 0.623939 7.96373 0.859814 7.71844C1.33124 7.22813 2.04036 6.58214 3.00589 5.93845C4.94239 4.64747 7.89753 3.375 12 3.375C16.1025 3.375 19.0577 4.64747 20.9942 5.93845C21.9597 6.58214 22.6688 7.22813 23.1403 7.71844C23.3761 7.96373 23.5529 8.1705 23.6731 8.31928C23.7203 8.37755 23.7664 8.43671 23.8113 8.49675Z" fill="#ED1C24"/>
</g>
<defs>
<clipPath id="clip0_174_2">
<rect width="24" height="24" fill="white"/>
</clipPath>
</defs>
</svg>
