<svg width="24" height="24" viewBox="0 0 24 24" fill="none" xmlns="http://www.w3.org/2000/svg">
<path d="M16.5 4.3V3.2C16.5 2.61652 16.2629 2.05695 15.841 1.64436C15.419 1.23178 14.8467 1 14.25 1H9.75C9.15326 1 8.58097 1.23178 8.15901 1.64436C7.73705 2.05695 7.5 2.61652 7.5 3.2V4.3C6.30653 4.3 5.16193 4.76357 4.31802 5.58873C3.47411 6.41389 3 7.53305 3 8.7V20.8C3 21.3835 3.23705 21.9431 3.65901 22.3556C4.08097 22.7682 4.65326 23 5.25 23H18.75C19.3467 23 19.919 22.7682 20.341 22.3556C20.7629 21.9431 21 21.3835 21 20.8V8.7C21 7.53305 20.5259 6.41389 19.682 5.58873C18.8381 4.76357 17.6935 4.3 16.5 4.3ZM9.75 3.2H14.25V4.3H9.75V3.2ZM12 8.7L14.25 10.9L12 13.1L9.75 10.9L12 8.7ZM18.75 16.4H8.625V18.6H7.5V16.4H5.25V15.3H18.75V16.4Z" fill="#ED1C24"/>
</svg>
