<svg width="24" height="24" viewBox="0 0 24 24" fill="none" xmlns="http://www.w3.org/2000/svg">
<path d="M9.74939 1.5C11.3117 1.505 12.8405 1.95352 14.1579 2.79337C15.4753 3.63323 16.5271 4.82988 17.191 6.24413C17.8549 7.65837 18.1036 9.23206 17.9081 10.7821C17.7127 12.3322 17.0811 13.7948 16.0869 15L21.2782 20.2132C21.3484 20.2829 21.4042 20.3658 21.4423 20.4572C21.4804 20.5486 21.5 20.6466 21.5 20.7457C21.5 20.8447 21.4804 20.9427 21.4423 21.0341C21.4042 21.1255 21.3484 21.2084 21.2782 21.2782C21.2084 21.3484 21.1255 21.4042 21.0341 21.4423C20.9427 21.4804 20.8447 21.5 20.7457 21.5C20.6466 21.5 20.5486 21.4804 20.4572 21.4423C20.3658 21.4042 20.2829 21.3484 20.2132 21.2782L14.9994 16.0875C13.9804 16.9367 12.7717 17.5277 11.4757 17.8104C10.1797 18.0931 8.8347 18.0591 7.55464 17.7114C6.27458 17.3636 5.09725 16.7123 4.12246 15.8127C3.14767 14.9131 2.40417 13.7918 1.95498 12.5437C1.5058 11.2956 1.36418 9.95759 1.54214 8.64312C1.7201 7.32866 2.21238 6.07648 2.97725 4.99276C3.74212 3.90903 4.75703 3.02572 5.93593 2.4177C7.11482 1.80968 8.42295 1.49488 9.74939 1.5ZM9.74939 16.5C11.0844 16.5 12.3895 16.1041 13.4995 15.3624C14.6095 14.6207 15.4747 13.5665 15.9856 12.3331C16.4965 11.0997 16.6301 9.74251 16.3697 8.43314C16.1092 7.12377 15.4664 5.92103 14.5224 4.97703C13.5784 4.03303 12.3756 3.39015 11.0663 3.1297C9.75688 2.86925 8.39968 3.00292 7.16628 3.51381C5.93288 4.02471 4.87868 4.88987 4.13698 5.9999C3.39528 7.10993 2.9994 8.41498 2.9994 9.75C2.9994 11.5402 3.71056 13.2571 4.97643 14.523C6.2423 15.7888 7.95918 16.5 9.74939 16.5Z" fill="#F1F8FD"/>
</svg>
