<svg width="24" height="24" viewBox="0 0 24 24" fill="none" xmlns="http://www.w3.org/2000/svg">
<path d="M22.5 12.2325C22.426 14.9724 21.2888 17.5761 19.3291 19.4924C17.3694 21.4087 14.7409 22.4874 12 22.5C10.6006 22.4993 9.21564 22.2174 7.92729 21.6711C6.63893 21.1249 5.47344 20.3253 4.5 19.32V21.75C4.5 21.9489 4.42098 22.1397 4.28033 22.2803C4.13968 22.421 3.94891 22.5 3.75 22.5C3.55109 22.5 3.36032 22.421 3.21967 22.2803C3.07902 22.1397 3 21.9489 3 21.75V17.25C3 17.0511 3.07902 16.8603 3.21967 16.7197C3.36032 16.579 3.55109 16.5 3.75 16.5H8.25C8.44891 16.5 8.63968 16.579 8.78033 16.7197C8.92098 16.8603 9 17.0511 9 17.25C9 17.4489 8.92098 17.6397 8.78033 17.7803C8.63968 17.921 8.44891 18 8.25 18H5.31C6.5148 19.34 8.09413 20.2875 9.84351 20.7199C11.5929 21.1522 13.4318 21.0494 15.1221 20.4248C16.8124 19.8002 18.2763 18.6826 19.3242 17.2167C20.3722 15.7507 20.956 14.004 21 12.2025C21 12.0036 21.079 11.8128 21.2197 11.6722C21.3603 11.5315 21.5511 11.4525 21.75 11.4525C21.9489 11.4525 22.1397 11.5315 22.2803 11.6722C22.421 11.8128 22.5 12.0036 22.5 12.2025V12.2325ZM12 3C13.2637 2.99972 14.5131 3.2669 15.6661 3.78395C16.8191 4.30101 17.8497 5.05624 18.69 6H15.75C15.5511 6 15.3603 6.07902 15.2197 6.21967C15.079 6.36032 15 6.55109 15 6.75C15 6.94891 15.079 7.13968 15.2197 7.28033C15.3603 7.42098 15.5511 7.5 15.75 7.5H20.25C20.4489 7.5 20.6397 7.42098 20.7803 7.28033C20.921 7.13968 21 6.94891 21 6.75V2.25C21 2.05109 20.921 1.86032 20.7803 1.71967C20.6397 1.57902 20.4489 1.5 20.25 1.5C20.0511 1.5 19.8603 1.57902 19.7197 1.71967C19.579 1.86032 19.5 2.05109 19.5 2.25V4.68C18.5266 3.67467 17.3611 2.87515 16.0727 2.32888C14.7844 1.78262 13.3994 1.50075 12 1.5C9.25908 1.51264 6.63063 2.59126 4.67091 4.50758C2.71119 6.4239 1.574 9.02755 1.5 11.7675C1.5 11.9664 1.57902 12.1572 1.71967 12.2978C1.86032 12.4385 2.05109 12.5175 2.25 12.5175C2.44891 12.5175 2.63968 12.4385 2.78033 12.2978C2.92098 12.1572 3 11.9664 3 11.7675C3.07188 9.4248 4.05034 7.20148 5.7292 5.56599C7.40806 3.9305 9.65622 3.01056 12 3Z" fill="#363739"/>
</svg>
