<svg width="16" height="16" viewBox="0 0 16 16" fill="none" xmlns="http://www.w3.org/2000/svg">
<path d="M13.748 3.46829L9.20799 7.9997L13.748 12.5311C13.8282 12.6107 13.892 12.7055 13.9355 12.8099C13.979 12.9142 14.0013 13.0262 14.0013 13.1393C14.0013 13.2524 13.979 13.3643 13.9355 13.4687C13.892 13.5731 13.8282 13.6678 13.748 13.7475C13.6683 13.8278 13.5736 13.8915 13.4692 13.935C13.3648 13.9785 13.2529 14.0009 13.1398 14.0009C13.0267 14.0009 12.9147 13.9785 12.8103 13.935C12.706 13.8915 12.6112 13.8278 12.5316 13.7475L8.00018 9.2075L3.46877 13.7475C3.38914 13.8278 3.2944 13.8915 3.19002 13.935C3.08563 13.9785 2.97367 14.0009 2.86059 14.0009C2.74751 14.0009 2.63555 13.9785 2.53116 13.935C2.42678 13.8915 2.33204 13.8278 2.2524 13.7475C2.17212 13.6678 2.10839 13.5731 2.0649 13.4687C2.02141 13.3643 1.99902 13.2524 1.99902 13.1393C1.99902 13.0262 2.02141 12.9142 2.0649 12.8099C2.10839 12.7055 2.17212 12.6107 2.2524 12.5311L6.79238 7.9997L2.2524 3.46829C2.0911 3.30699 2.00049 3.08822 2.00049 2.8601C2.00049 2.63199 2.0911 2.41322 2.2524 2.25192C2.4137 2.09062 2.63248 2 2.86059 2C3.0887 2 3.30747 2.09062 3.46877 2.25192L8.00018 6.79189L12.5316 2.25192C12.6929 2.09062 12.9117 2 13.1398 2C13.3679 2 13.5867 2.09062 13.748 2.25192C13.9093 2.41322 13.9999 2.63199 13.9999 2.8601C13.9999 3.08822 13.9093 3.30699 13.748 3.46829Z" fill="#363739"/>
</svg>
