<svg width="17" height="21" viewBox="0 0 17 21" fill="none" xmlns="http://www.w3.org/2000/svg">
<path fill-rule="evenodd" clip-rule="evenodd" d="M8.31836 0.335449C3.90036 0.335449 0.318359 4.33845 0.318359 8.83545C0.318359 13.2974 2.87136 18.1474 6.85536 20.0094C7.31328 20.2239 7.81273 20.335 8.31836 20.335C8.82399 20.335 9.32344 20.2239 9.78136 20.0094C13.7654 18.1474 16.3184 13.2974 16.3184 8.83545C16.3184 4.33845 12.7364 0.335449 8.31836 0.335449ZM8.31836 10.3354C8.84879 10.3354 9.3575 10.1247 9.73257 9.74966C10.1076 9.37459 10.3184 8.86588 10.3184 8.33545C10.3184 7.80502 10.1076 7.29631 9.73257 6.92124C9.3575 6.54616 8.84879 6.33545 8.31836 6.33545C7.78793 6.33545 7.27922 6.54616 6.90415 6.92124C6.52907 7.29631 6.31836 7.80502 6.31836 8.33545C6.31836 8.86588 6.52907 9.37459 6.90415 9.74966C7.27922 10.1247 7.78793 10.3354 8.31836 10.3354Z" fill="#ED1C24"/>
</svg>
