<svg width="16" height="16" viewBox="0 0 16 16" fill="none" xmlns="http://www.w3.org/2000/svg">
<path d="M8 1C4.14 1 1 4.14 1 8C1 11.86 4.14 15 8 15C11.86 15 15 11.86 15 8C15 4.14 11.86 1 8 1ZM8 14C4.6915 14 2 11.3085 2 8C2 4.6915 4.6915 2 8 2C11.3085 2 14 4.6915 14 8C14 11.3085 11.3085 14 8 14Z" fill="#363739"/>
<path d="M8.01 11H8.005C7.729 11 7.5075 11.2235 7.5075 11.5C7.5075 11.7765 7.734 12 8.01 12C8.14261 12 8.26978 11.9473 8.36355 11.8536C8.45732 11.7598 8.51 11.6326 8.51 11.5C8.51 11.3674 8.45732 11.2402 8.36355 11.1464C8.26978 11.0527 8.14261 11 8.01 11ZM8 10.113C8.13261 10.113 8.25979 10.0603 8.35355 9.96655C8.44732 9.87279 8.5 9.74561 8.5 9.613V4.5C8.5 4.36739 8.44732 4.24021 8.35355 4.14645C8.25979 4.05268 8.13261 4 8 4C7.86739 4 7.74021 4.05268 7.64645 4.14645C7.55268 4.24021 7.5 4.36739 7.5 4.5V9.613C7.5 9.74561 7.55268 9.87279 7.64645 9.96655C7.74021 10.0603 7.86739 10.113 8 10.113Z" fill="#363739"/>
</svg>
