<svg width="24" height="24" viewBox="0 0 24 24" fill="none" xmlns="http://www.w3.org/2000/svg">
<path d="M4.23397 19.7651C5.24199 20.773 6.41619 21.5646 7.72407 22.1178C9.07898 22.6908 10.5173 22.9814 11.999 22.9814C13.4808 22.9814 14.9191 22.6908 16.274 22.1178C17.5818 21.5646 18.7561 20.773 19.7641 19.7651C20.7721 18.757 21.5637 17.5828 22.1168 16.2749C22.6899 14.92 22.9805 13.4817 22.9805 12C22.9805 10.5182 22.6899 9.07992 22.1168 7.72504C21.5637 6.41717 20.7721 5.24297 19.7641 4.23495C18.7561 3.22693 17.5819 2.43536 16.274 1.8822C14.919 1.30909 13.4808 1.01855 11.999 1.01855C10.5173 1.01855 9.07898 1.30913 7.72407 1.8822C6.41619 2.43536 5.24199 3.22697 4.23397 4.23495C3.22596 5.24293 2.43438 6.41717 1.88119 7.725C1.30815 9.07992 1.01758 10.5182 1.01758 12C1.01758 13.4817 1.30815 14.92 1.88122 16.2749C2.43438 17.5828 3.22599 18.757 4.23397 19.7651ZM11.999 2.62168C17.1785 2.62168 21.3773 6.8205 21.3773 12C21.3773 17.1795 17.1785 21.3783 11.999 21.3783C6.81952 21.3783 2.6207 17.1795 2.6207 12C2.6207 6.8205 6.81952 2.62168 11.999 2.62168Z" fill="#F1F8FD"/>
<path d="M12.0002 23.0003C10.5158 23.0003 9.07506 22.7092 7.7179 22.1352C6.40778 21.581 5.23156 20.7881 4.2219 19.7784C3.21216 18.7687 2.41924 17.5924 1.86514 16.2824C1.29106 14.9251 1 13.4844 1 12.0002C1 10.5159 1.29106 9.07513 1.8651 7.71786C2.4192 6.40782 3.21216 5.2316 4.22186 4.22186C5.23156 3.21212 6.40782 2.4192 7.71786 1.8651C9.07513 1.29106 10.5159 1 12.0001 1C13.4845 1 14.9252 1.29106 16.2824 1.86514C17.5924 2.41924 18.7687 3.21219 19.7784 4.2219C20.7882 5.23171 21.5811 6.40793 22.1352 7.7179C22.7093 9.07517 23.0003 10.5159 23.0003 12.0002C23.0003 13.4844 22.7093 14.9251 22.1352 16.2824C21.5811 17.5924 20.7882 18.7686 19.7784 19.7785C18.7687 20.7881 17.5925 21.581 16.2824 22.1352C14.9252 22.7092 13.4845 23.0003 12.0002 23.0003ZM12.0002 1.03742C10.5209 1.03742 9.08512 1.32747 7.7325 1.89957C6.42691 2.4518 5.25465 3.24202 4.24835 4.24831C3.24202 5.25465 2.4518 6.42687 1.89957 7.73242C1.32747 9.08509 1.03742 10.5209 1.03742 12.0002C1.03742 13.4793 1.32747 14.9152 1.89957 16.2678C2.4518 17.5734 3.24202 18.7456 4.24835 19.752C5.25461 20.7582 6.42683 21.5484 7.7325 22.1007C9.08497 22.6728 10.5208 22.9628 12.0002 22.9628C13.4795 22.9628 14.9153 22.6728 16.2678 22.1007C17.5735 21.5484 18.7457 20.7582 19.752 19.752C20.7583 18.7455 21.5485 17.5733 22.1007 16.2678C22.6728 14.9152 22.9629 13.4794 22.9629 12.0002C22.9629 10.5209 22.6728 9.08509 22.1007 7.7325C21.5486 6.42698 20.7583 5.25476 19.752 4.24835C18.7456 3.24206 17.5734 2.45183 16.2678 1.89961C14.9153 1.32747 13.4794 1.03742 12.0002 1.03742ZM12.0002 21.3971C9.49013 21.3971 7.13031 20.4197 5.35546 18.6448C3.58061 16.8699 2.60313 14.5102 2.60313 12.0002C2.60313 9.49013 3.58057 7.13031 5.35546 5.35546C7.13031 3.58061 9.49013 2.60313 12.0002 2.60313C14.5102 2.60313 16.87 3.58061 18.6448 5.35546C20.4197 7.13035 21.3972 9.49013 21.3972 12.0002C21.3972 14.5102 20.4197 16.87 18.6448 18.6448C16.87 20.4197 14.5102 21.3971 12.0002 21.3971ZM12.0002 2.64055C9.50013 2.64055 7.14973 3.61414 5.38192 5.38192C3.61414 7.14973 2.64055 9.50013 2.64055 12.0002C2.64055 14.5002 3.61414 16.8506 5.38192 18.6183C7.1497 20.3861 9.50013 21.3597 12.0002 21.3597C14.5002 21.3597 16.8506 20.3861 18.6184 18.6183C20.3862 16.8506 21.3597 14.5002 21.3597 12.0002C21.3597 9.50013 20.3862 7.1497 18.6184 5.38192C16.8506 3.6141 14.5002 2.64055 12.0002 2.64055Z" fill="#F1F8FD"/>
<path d="M9.57005 15.9981C9.64447 16.0725 9.73284 16.1315 9.83009 16.1718C9.92734 16.2121 10.0316 16.2328 10.1368 16.2328C10.2421 16.2328 10.3463 16.2121 10.4436 16.1718C10.5408 16.1315 10.6292 16.0725 10.7036 15.9981L17.5661 9.13556C17.8792 8.82253 17.8792 8.31503 17.5661 8.002C17.2531 7.68897 16.7456 7.68893 16.4325 8.002L10.1368 14.2977L7.56951 11.7304C7.25648 11.4173 6.74897 11.4173 6.43594 11.7304C6.12291 12.0434 6.12291 12.5509 6.43594 12.864L9.57005 15.9981Z" fill="#F1F8FD"/>
<path d="M10.1356 16.2516C9.91652 16.2516 9.71052 16.1663 9.5556 16.0113L6.42149 12.8772C6.10169 12.5574 6.10169 12.037 6.42149 11.7172C6.57642 11.5622 6.78242 11.4769 7.00152 11.4769C7.22062 11.4769 7.42659 11.5622 7.58155 11.7172L10.1357 14.2713L16.4181 7.98878C16.4941 7.91237 16.5845 7.85179 16.6841 7.81055C16.7836 7.76931 16.8904 7.74823 16.9982 7.74854C17.1059 7.74825 17.2127 7.76933 17.3122 7.81057C17.4118 7.85181 17.5022 7.91238 17.5782 7.98878C17.7331 8.14371 17.8185 8.34971 17.8185 8.56881C17.8185 8.78791 17.7331 8.99388 17.5782 9.14884L10.7157 16.0113C10.6397 16.0878 10.5493 16.1483 10.4497 16.1896C10.3501 16.2308 10.2434 16.2519 10.1356 16.2516ZM7.00152 11.5144C6.89868 11.5141 6.7968 11.5342 6.70178 11.5736C6.60676 11.6129 6.5205 11.6707 6.44799 11.7437C6.14278 12.0489 6.14278 12.5455 6.44799 12.8508L9.58209 15.9849C9.65461 16.0578 9.74088 16.1156 9.83589 16.155C9.93091 16.1943 10.0328 16.2144 10.1356 16.2142C10.2385 16.2144 10.3404 16.1943 10.4354 16.155C10.5304 16.1156 10.6167 16.0578 10.6892 15.9849L17.5517 9.12238C17.6995 8.97453 17.781 8.77792 17.781 8.56885C17.781 8.35978 17.6995 8.16313 17.5517 8.01528C17.4038 7.86739 17.2072 7.786 16.9981 7.786C16.789 7.786 16.5924 7.86743 16.4445 8.01528L10.1356 14.3242L7.55506 11.7437C7.48254 11.6707 7.39628 11.6129 7.30126 11.5736C7.20625 11.5342 7.10437 11.5141 7.00152 11.5144Z" fill="#F1F8FD"/>
</svg>
