<svg width="16" height="16" viewBox="0 0 16 16" fill="none" xmlns="http://www.w3.org/2000/svg">
<g clip-path="url(#clip0_1063_2227)">
<path d="M8 0.9C4.09477 0.9 0.9 4.09477 0.9 8C0.9 11.9052 4.09477 15.1 8 15.1C11.9052 15.1 15.1 11.9052 15.1 8C15.1 4.09477 11.9052 0.9 8 0.9ZM8 13.9C4.75523 13.9 2.1 11.2448 2.1 8C2.1 4.75523 4.75523 2.1 8 2.1C11.2448 2.1 13.9 4.75523 13.9 8C13.9 11.2448 11.2448 13.9 8 13.9Z" fill="#363739" stroke="#363739" stroke-width="0.2"/>
<path d="M10.65 7.4H8.6V5.25C8.6 5.07728 8.54199 4.92557 8.43321 4.81679C8.32443 4.70801 8.17272 4.65 8 4.65C7.82728 4.65 7.67557 4.70801 7.56679 4.81679C7.45801 4.92557 7.4 5.07728 7.4 5.25V8C7.4 8.17272 7.45801 8.32443 7.56679 8.43321C7.67557 8.54199 7.82728 8.6 8 8.6H10.65C10.8227 8.6 10.9744 8.54199 11.0832 8.43321C11.192 8.32443 11.25 8.17272 11.25 8C11.25 7.82728 11.192 7.67557 11.0832 7.56679C10.9744 7.45801 10.8227 7.4 10.65 7.4Z" fill="#363739" stroke="#363739" stroke-width="0.2"/>
</g>
<defs>
<clipPath id="clip0_1063_2227">
<rect width="16" height="16" fill="white"/>
</clipPath>
</defs>
</svg>
