<svg width="18" height="18" viewBox="0 0 18 18" fill="none" xmlns="http://www.w3.org/2000/svg">
<path d="M5.994 16.875H12.006C13.5568 16.875 14.8185 15.6133 14.8185 14.0625V4.977H14.9062C15.0554 4.977 15.1985 4.91774 15.304 4.81225C15.4095 4.70676 15.4688 4.56368 15.4688 4.4145C15.4688 4.26532 15.4095 4.12224 15.304 4.01675C15.1985 3.91126 15.0554 3.852 14.9062 3.852H12.375V2.8125C12.375 1.88212 11.6179 1.125 10.6875 1.125H7.3125C6.38212 1.125 5.625 1.88212 5.625 2.8125V3.852H3.09375C3.01988 3.852 2.94674 3.86655 2.87849 3.89482C2.81025 3.92309 2.74824 3.96452 2.696 4.01675C2.64377 4.06899 2.60234 4.131 2.57407 4.19924C2.5458 4.26749 2.53125 4.34063 2.53125 4.4145C2.53125 4.48837 2.5458 4.56151 2.57407 4.62976C2.60234 4.698 2.64377 4.76001 2.696 4.81225C2.74824 4.86448 2.81025 4.90591 2.87849 4.93418C2.94674 4.96245 3.01988 4.977 3.09375 4.977H3.1815V14.0625C3.1815 15.6133 4.44319 16.875 5.994 16.875ZM6.75 2.8125C6.75 2.502 7.00256 2.25 7.3125 2.25H10.6875C10.9974 2.25 11.25 2.502 11.25 2.8125V3.852H6.75V2.8125ZM13.6935 4.977V14.0625C13.6935 14.9929 12.9364 15.75 12.006 15.75H5.994C5.06363 15.75 4.3065 14.9929 4.3065 14.0625V4.977H13.6935Z" fill="#757678"/>
<path d="M10.3135 13.3386C10.4627 13.3386 10.6058 13.2793 10.7113 13.1738C10.8168 13.0683 10.876 12.9253 10.876 12.7761V7.95264C10.876 7.80345 10.8168 7.66038 10.7113 7.55489C10.6058 7.4494 10.4627 7.39014 10.3135 7.39014C10.1644 7.39014 10.0213 7.4494 9.9158 7.55489C9.81031 7.66038 9.75105 7.80345 9.75105 7.95264V12.7761C9.75105 12.9253 9.81031 13.0683 9.9158 13.1738C10.0213 13.2793 10.1644 13.3386 10.3135 13.3386ZM7.68555 13.3386C7.83473 13.3386 7.97781 13.2793 8.08329 13.1738C8.18878 13.0683 8.24805 12.9253 8.24805 12.7761V7.95264C8.24805 7.80345 8.18878 7.66038 8.08329 7.55489C7.97781 7.4494 7.83473 7.39014 7.68555 7.39014C7.53636 7.39014 7.39329 7.4494 7.2878 7.55489C7.18231 7.66038 7.12305 7.80345 7.12305 7.95264V12.7761C7.12305 12.9253 7.18231 13.0683 7.2878 13.1738C7.39329 13.2793 7.53636 13.3386 7.68555 13.3386Z" fill="#757678"/>
</svg>
