<svg width="16" height="16" viewBox="0 0 16 16" fill="none" xmlns="http://www.w3.org/2000/svg">
<g clip-path="url(#clip0_311_155)">
<path d="M13.4142 15.1L13.4145 15.1C13.8379 15.0986 14.2435 14.9294 14.5424 14.6295C14.8413 14.3296 15.0092 13.9234 15.0092 13.5V13.375H15.0095L15.0088 13.3663C14.8912 12.0148 14.318 10.7433 13.383 9.76023C12.448 8.77721 11.2068 8.14101 9.8628 7.95593L9.8628 7.95592L9.86205 7.95583C9.78336 7.9456 9.70343 7.95096 9.62682 7.97163C9.55022 7.99229 9.47843 8.02783 9.41556 8.07624C9.35269 8.12464 9.29996 8.18496 9.2604 8.25374C9.22084 8.32252 9.19522 8.39841 9.18499 8.4771C9.17476 8.55578 9.18013 8.63571 9.20079 8.71232C9.22145 8.78893 9.257 8.86072 9.3054 8.92359C9.35381 8.98646 9.41412 9.03918 9.4829 9.07874C9.55155 9.11823 9.62729 9.14383 9.70581 9.1541C10.7737 9.29785 11.7614 9.79932 12.5076 10.5767C13.2518 11.3519 13.7121 12.3559 13.8138 13.4255C13.8115 13.455 13.8116 13.4847 13.8141 13.5142C13.813 13.6187 13.771 13.7188 13.697 13.7928C13.622 13.8678 13.5202 13.91 13.4142 13.91L2.58447 13.91C2.58443 13.91 2.58438 13.91 2.58433 13.91C2.52954 13.9098 2.47536 13.8983 2.42517 13.8763C2.375 13.8544 2.32989 13.8223 2.29262 13.7822C2.25474 13.741 2.22592 13.6923 2.20802 13.6393C2.19011 13.5862 2.18353 13.53 2.18873 13.4743L2.18879 13.4735C2.28122 12.3939 2.73849 11.3779 3.48531 10.5928C4.23206 9.80781 5.22382 9.3004 6.29736 9.15411C6.45615 9.13339 6.60021 9.05047 6.69791 8.92359C6.79566 8.79661 6.83898 8.63601 6.81832 8.4771C6.79766 8.31819 6.71472 8.174 6.58775 8.07624C6.46078 7.97848 6.30017 7.93517 6.14126 7.95583L6.14126 7.95582L6.14035 7.95595C4.80191 8.14248 3.5661 8.77686 2.63437 9.75569C1.70264 10.7345 1.12991 12.0001 1.00955 13.3461L1.00953 13.3463C0.990288 13.5676 1.01734 13.7905 1.08896 14.0008C1.16051 14.2108 1.27497 14.4037 1.42506 14.5672C1.57106 14.7303 1.749 14.8618 1.94788 14.9535C2.14696 15.0452 2.36277 15.0951 2.58193 15.1L2.58193 15.1H2.58415L13.4142 15.1Z" fill="#363739" stroke="#363739" stroke-width="0.2"/>
<path d="M8 9.6H8.00012C9.15336 9.59865 10.259 9.13992 11.0745 8.32445C11.8899 7.50899 12.3486 6.40336 12.35 5.25012V5.25C12.35 4.38965 12.0949 3.54863 11.6169 2.83327C11.1389 2.11792 10.4595 1.56037 9.66468 1.23113C8.86982 0.901885 7.99518 0.81574 7.15136 0.983586C6.30754 1.15143 5.53245 1.56573 4.92409 2.17409C4.31573 2.78245 3.90143 3.55754 3.73359 4.40136C3.56574 5.24518 3.65188 6.11982 3.98113 6.91468C4.31037 7.70953 4.86792 8.38891 5.58327 8.86689C6.29862 9.34488 7.13965 9.6 8 9.6ZM6.24996 2.63087C6.76795 2.28476 7.37694 2.10002 7.99993 2.1C8.83498 2.1013 9.63546 2.4336 10.2259 3.02408C10.8164 3.61457 11.1487 4.41508 11.15 5.25016C11.15 5.87311 10.9652 6.48208 10.6191 7.00005C10.273 7.51806 9.78104 7.92181 9.20545 8.16022C8.62987 8.39864 7.99651 8.46102 7.38547 8.33948C6.77443 8.21793 6.21315 7.91792 5.77262 7.47739C5.33208 7.03685 5.03207 6.47558 4.91053 5.86454C4.78898 5.2535 4.85137 4.62014 5.08978 4.04455C5.3282 3.46896 5.73194 2.977 6.24996 2.63087Z" fill="#363739" stroke="#363739" stroke-width="0.2"/>
</g>
<defs>
<clipPath id="clip0_311_155">
<rect width="16" height="16" fill="white"/>
</clipPath>
</defs>
</svg>
