<svg width="16" height="16" viewBox="0 0 16 16" fill="none" xmlns="http://www.w3.org/2000/svg">
<path d="M12.5465 7.21251L12.546 7.21351H12.545L5.82849 13.9305C5.76698 13.9921 5.69045 14.0366 5.60649 14.0595L2.29249 14.9635C2.11861 15.0124 1.9348 15.0137 1.76023 14.9674C1.58566 14.921 1.42672 14.8287 1.29999 14.7C1.17147 14.5732 1.07926 14.4142 1.03292 14.2397C0.986588 14.0652 0.987819 13.8814 1.03649 13.7075L1.94049 10.394C1.96347 10.3101 2.00793 10.2335 2.06949 10.172L8.78699 3.45451L10.462 1.77901C10.7082 1.53124 11.0012 1.33481 11.3239 1.20109C11.6466 1.06737 11.9927 0.99902 12.342 1.00001C13.052 1.00001 13.7195 1.27651 14.2215 1.77901C14.469 2.02518 14.6653 2.318 14.799 2.64053C14.9326 2.96306 15.0009 3.30889 15 3.65801C15.001 4.00729 14.9328 4.35332 14.7991 4.67603C14.6655 4.99874 14.4692 5.29173 14.2215 5.53801L12.5465 7.21251ZM2.02949 13.9985L5.21499 13.13L11.485 6.86001L9.14049 4.51501L2.87199 10.783L2.02949 13.9985ZM13.515 2.48601C12.889 1.85901 11.7965 1.85901 11.17 2.48601L9.84799 3.80751L12.193 6.15251L13.515 4.83051C13.8255 4.51931 13.9999 4.09763 13.9999 3.65801C13.9999 3.21839 13.8255 2.79721 13.515 2.48601Z" fill="#757678"/>
</svg>
