<svg width="16" height="16" viewBox="0 0 16 16" fill="none" xmlns="http://www.w3.org/2000/svg">
<path d="M6.75325 14.796L6.75331 14.7961C6.91007 14.9717 7.10216 15.1122 7.317 15.2084C7.53185 15.3047 7.7646 15.3544 8 15.3544C8.47646 15.3544 8.93095 15.1511 9.24675 14.796C10.1423 13.7893 11.3417 12.3516 12.3176 10.8667C12.8055 10.1242 13.2382 9.36899 13.549 8.64923C13.8596 7.93002 14.05 7.24298 14.05 6.63777C14.05 3.33369 11.335 0.645679 8 0.645679C4.66502 0.645679 1.95 3.3337 1.95 6.63829C1.95 7.24338 2.14041 7.93032 2.45105 8.64945C2.76193 9.36914 3.19466 10.1243 3.68263 10.8667C4.65856 12.3516 5.85801 13.7893 6.75325 14.796ZM8.39255 14.0357L8.39253 14.0357C8.1923 14.2611 7.80777 14.2607 7.60743 14.0356C6.19146 12.4438 5.06182 10.9551 4.28651 9.68232C3.50967 8.40709 3.09348 7.35644 3.09348 6.63829C3.09348 3.96489 5.29419 1.78916 8 1.78916C10.7058 1.78916 12.9065 3.96489 12.9065 6.63829C12.9065 7.35617 12.4903 8.40669 11.7135 9.68193C10.9382 10.9547 9.80853 12.4435 8.39255 14.0357Z" fill="#363739" stroke="#363739" stroke-width="0.1"/>
<path d="M7.9995 10.3404C10.0589 10.3404 11.7345 8.67968 11.7345 6.63826C11.7345 4.59684 10.0589 2.93608 7.9995 2.93608C5.94013 2.93608 4.26445 4.59631 4.26445 6.63826C4.26445 8.68021 5.94013 10.3404 7.9995 10.3404ZM7.9995 4.07956C9.42917 4.07956 10.5911 5.22751 10.5911 6.63826C10.5911 8.04901 9.42917 9.19695 7.9995 9.19695C6.56983 9.19695 5.40793 8.04798 5.40793 6.63826C5.40793 5.22854 6.56983 4.07956 7.9995 4.07956Z" fill="#363739" stroke="#363739" stroke-width="0.1"/>
</svg>
