<svg width="16" height="16" viewBox="0 0 16 16" fill="none" xmlns="http://www.w3.org/2000/svg">
<g clip-path="url(#clip0_311_128)">
<path d="M8 0.95C4.11239 0.95 0.95 4.11239 0.95 8C0.95 11.8876 4.11239 15.05 8 15.05C11.8876 15.05 15.05 11.8876 15.05 8C15.05 4.11239 11.8876 0.95 8 0.95ZM8 13.95C4.71911 13.95 2.05 11.2809 2.05 8C2.05 4.71911 4.71911 2.05 8 2.05C11.2809 2.05 13.95 4.71911 13.95 8C13.95 11.2809 11.2809 13.95 8 13.95Z" fill="#757678" stroke="#757678" stroke-width="0.1"/>
<path d="M9.73563 10.95H8.55063V6.5585C8.55063 6.41263 8.49268 6.27274 8.38953 6.16959C8.28639 6.06645 8.14649 6.0085 8.00063 6.0085H6.76563C6.61976 6.0085 6.47986 6.06645 6.37672 6.16959C6.27357 6.27274 6.21563 6.41263 6.21563 6.5585C6.21563 6.70437 6.27357 6.84426 6.37672 6.94741C6.47986 7.05055 6.61976 7.1085 6.76563 7.1085H7.45063V10.95H6.26563C6.11976 10.95 5.97986 11.0079 5.87672 11.1111C5.77357 11.2142 5.71562 11.3541 5.71562 11.5C5.71562 11.6459 5.77357 11.7858 5.87672 11.8889C5.97986 11.9921 6.11976 12.05 6.26563 12.05H9.73563C9.88149 12.05 10.0214 11.9921 10.1245 11.8889C10.2277 11.7858 10.2856 11.6459 10.2856 11.5C10.2856 11.3541 10.2277 11.2142 10.1245 11.1111C10.0214 11.0079 9.88149 10.95 9.73563 10.95ZM8.01063 5.05C8.15649 5.05 8.29639 4.99205 8.39953 4.88891C8.50268 4.78576 8.56063 4.64587 8.56063 4.5C8.56063 4.35413 8.50268 4.21424 8.39953 4.11109C8.29639 4.00795 8.15649 3.95 8.01063 3.95H8.00563C7.70172 3.95 7.45813 4.19618 7.45813 4.5C7.45813 4.80447 7.70737 5.05 8.01063 5.05Z" fill="#757678" stroke="#757678" stroke-width="0.1"/>
</g>
<defs>
<clipPath id="clip0_311_128">
<rect width="16" height="16" fill="white"/>
</clipPath>
</defs>
</svg>
