<svg width="16" height="16" viewBox="0 0 16 16" fill="none" xmlns="http://www.w3.org/2000/svg">
<g clip-path="url(#clip0_1063_2217)">
<path d="M13.5 1.9H12.6V1.5C12.6 1.34087 12.5368 1.18826 12.4243 1.07574C12.3117 0.963214 12.1591 0.9 12 0.9C11.8409 0.9 11.6883 0.963214 11.5757 1.07574C11.4632 1.18826 11.4 1.34087 11.4 1.5V1.9H8.6V1.5C8.6 1.34087 8.53679 1.18826 8.42426 1.07574C8.31174 0.963214 8.15913 0.9 8 0.9C7.84087 0.9 7.68826 0.963214 7.57574 1.07574C7.46321 1.18826 7.4 1.34087 7.4 1.5V1.9H4.6V1.5C4.6 1.34087 4.53679 1.18826 4.42426 1.07574C4.31174 0.963214 4.15913 0.9 4 0.9C3.84087 0.9 3.68826 0.963214 3.57574 1.07574C3.46321 1.18826 3.4 1.34087 3.4 1.5V1.9H2.5C2.07565 1.9 1.66869 2.06857 1.36863 2.36863C1.06857 2.66869 0.9 3.07565 0.9 3.5V13.5C0.9 13.9243 1.06857 14.3313 1.36863 14.6314C1.66869 14.9314 2.07565 15.1 2.5 15.1H13.5C13.9243 15.1 14.3313 14.9314 14.6314 14.6314C14.9314 14.3313 15.1 13.9243 15.1 13.5V3.5C15.1 3.07565 14.9314 2.66869 14.6314 2.36863C14.3313 2.06857 13.9243 1.9 13.5 1.9ZM2.5 3.1H3.4V3.5C3.4 3.65913 3.46321 3.81174 3.57574 3.92426C3.68826 4.03679 3.84087 4.1 4 4.1C4.15913 4.1 4.31174 4.03679 4.42426 3.92426C4.53679 3.81174 4.6 3.65913 4.6 3.5V3.1H7.4V3.5C7.4 3.65913 7.46321 3.81174 7.57574 3.92426C7.68826 4.03679 7.84087 4.1 8 4.1C8.15913 4.1 8.31174 4.03679 8.42426 3.92426C8.53679 3.81174 8.6 3.65913 8.6 3.5V3.1H11.4V3.5C11.4 3.65913 11.4632 3.81174 11.5757 3.92426C11.6883 4.03679 11.8409 4.1 12 4.1C12.1591 4.1 12.3117 4.03679 12.4243 3.92426C12.5368 3.81174 12.6 3.65913 12.6 3.5V3.1H13.5C13.6061 3.1 13.7078 3.14214 13.7828 3.21716C13.8579 3.29217 13.9 3.39391 13.9 3.5V6.4H2.1V3.5C2.1 3.39391 2.14214 3.29217 2.21716 3.21716C2.29217 3.14214 2.39391 3.1 2.5 3.1ZM2.5 13.9C2.39391 13.9 2.29217 13.8579 2.21716 13.7828C2.14214 13.7078 2.1 13.6061 2.1 13.5V7.6H13.9V13.5C13.9 13.6061 13.8579 13.7078 13.7828 13.7828C13.7078 13.8579 13.6061 13.9 13.5 13.9H2.5Z" fill="#363739" stroke="#363739" stroke-width="0.2"/>
</g>
<defs>
<clipPath id="clip0_1063_2217">
<rect width="16" height="16" fill="white"/>
</clipPath>
</defs>
</svg>
