<svg width="320" height="35" viewBox="0 0 320 35" fill="none" xmlns="http://www.w3.org/2000/svg">
<path d="M314.612 27.8205H300.191C300.163 27.8205 300.139 27.8091 300.121 27.7873C300.103 27.7654 300.097 27.7394 300.103 27.7122L304.425 7.25071C304.434 7.2086 304.47 7.17947 304.513 7.17947H311.199C311.227 7.17947 311.251 7.19087 311.269 7.21271C311.286 7.23456 311.293 7.26052 311.287 7.28774L307.51 25.1396C307.504 25.1671 307.51 25.1928 307.528 25.2146C307.545 25.2364 307.569 25.2478 307.597 25.2478H315.112C315.14 25.2478 315.164 25.2592 315.181 25.2811C315.199 25.3026 315.205 25.3286 315.199 25.3561L314.699 27.7493C314.691 27.7914 314.654 27.8205 314.612 27.8205ZM286.581 27.8205C285.605 27.8205 284.884 27.5264 284.416 26.9381C283.948 26.3496 283.823 25.567 284.042 24.5896L287.029 10.4103C287.248 9.43299 287.716 8.65036 288.433 8.06213C289.149 7.47358 289.985 7.17947 290.941 7.17947H302.21C302.238 7.17947 302.262 7.19087 302.279 7.21271C302.297 7.23424 302.303 7.2602 302.298 7.28742L301.797 9.68088C301.789 9.72267 301.753 9.75211 301.71 9.75211H294.12C294.077 9.75211 294.041 9.78124 294.032 9.82335L292.696 16.1052C292.691 16.1328 292.697 16.1584 292.714 16.1803C292.732 16.2024 292.756 16.2138 292.784 16.2138H298.566C298.594 16.2138 298.618 16.2252 298.636 16.2471C298.653 16.2686 298.66 16.2945 298.654 16.3218L298.154 18.7149C298.145 18.757 298.109 18.7861 298.066 18.7861H292.208C292.166 18.7861 292.13 18.8156 292.121 18.8574L290.785 25.1392C290.779 25.1668 290.785 25.1928 290.803 25.2146C290.821 25.2364 290.845 25.2478 290.873 25.2478H298.387C298.415 25.2478 298.439 25.2592 298.457 25.2811C298.474 25.3026 298.48 25.3286 298.475 25.3561L297.975 27.7493C297.966 27.7914 297.93 27.8205 297.887 27.8205H286.581ZM275.564 27.8205H268.866C268.818 27.8205 268.779 27.7835 268.776 27.736L267.562 7.27476C267.561 7.24911 267.569 7.22632 267.586 7.20764C267.604 7.18896 267.626 7.17947 267.651 7.17947H274.341C274.388 7.17947 274.428 7.2165 274.43 7.26431L275.272 22.2991C275.275 22.3406 275.304 22.3738 275.344 22.382C275.385 22.3903 275.424 22.3703 275.442 22.333L282.734 7.23013C282.749 7.19847 282.779 7.17947 282.814 7.17947H285.423C285.455 7.17947 285.482 7.19466 285.498 7.22157C285.516 7.24848 285.517 7.27951 285.504 7.30832L275.645 27.7695C275.63 27.8015 275.599 27.8205 275.564 27.8205ZM253.684 9.82335L251.81 18.6779C251.805 18.7054 251.811 18.7314 251.828 18.7529C251.846 18.7747 251.87 18.7861 251.898 18.7861H256.016C256.058 18.7861 256.094 18.757 256.103 18.7152L257.977 9.86039C257.982 9.83316 257.976 9.8072 257.959 9.78535C257.941 9.76351 257.917 9.75211 257.889 9.75211H253.772C253.729 9.75211 253.693 9.78156 253.684 9.82335ZM260.973 27.8205H254.287C254.26 27.8205 254.236 27.8091 254.218 27.7873C254.2 27.7654 254.194 27.7394 254.2 27.7122L255.527 21.4674C255.533 21.4402 255.527 21.4139 255.51 21.3923C255.492 21.3705 255.468 21.3591 255.44 21.3591H251.323C251.28 21.3591 251.244 21.3882 251.235 21.43L249.891 27.7493C249.882 27.7914 249.846 27.8205 249.804 27.8205H243.118C243.09 27.8205 243.066 27.8091 243.048 27.7873C243.03 27.7654 243.024 27.7394 243.03 27.7122L246.68 10.4103C246.899 9.43299 247.368 8.65036 248.084 8.06213C248.801 7.47358 249.637 7.17947 250.593 7.17947H262.181C263.156 7.17947 263.878 7.47358 264.346 8.06213C264.814 8.65036 264.938 9.43299 264.719 10.4103L261.061 27.7493C261.052 27.7914 261.016 27.8205 260.973 27.8205ZM240.334 27.8205H233.647C233.602 27.8205 233.565 27.7885 233.558 27.7442L232.596 21.4351C232.589 21.3911 232.552 21.3591 232.507 21.3591H230.715C230.673 21.3591 230.637 21.3882 230.628 21.43L229.284 27.7493C229.275 27.7914 229.239 27.8205 229.196 27.8205H222.51C222.483 27.8205 222.458 27.8091 222.441 27.7873C222.423 27.7654 222.417 27.7394 222.423 27.7122L226.745 7.25071C226.754 7.2086 226.79 7.17947 226.833 7.17947H241.574C242.549 7.17947 243.266 7.47358 243.724 8.06213C244.182 8.65004 244.301 9.43267 244.082 10.4097C244.082 10.41 244.082 10.4103 244.082 10.4106L242.47 18.1283C242.29 18.9657 241.927 19.6587 241.38 20.2073C240.852 20.7361 240.226 21.084 239.505 21.2512C239.459 21.2619 239.429 21.3059 239.436 21.3525L240.423 27.717C240.427 27.7439 240.42 27.7686 240.402 27.7891C240.384 27.8097 240.361 27.8205 240.334 27.8205ZM233.077 9.82335L231.203 18.6779C231.197 18.7054 231.204 18.7314 231.221 18.7529C231.239 18.7747 231.263 18.7861 231.291 18.7861H235.378C235.421 18.7861 235.457 18.757 235.466 18.7152L237.34 9.86039C237.345 9.83316 237.339 9.8072 237.321 9.78535C237.304 9.76351 237.28 9.75211 237.252 9.75211H233.164C233.122 9.75211 233.086 9.78156 233.077 9.82335ZM224 9.75211H219.008C218.965 9.75211 218.929 9.78156 218.92 9.82335L215.128 27.7493C215.119 27.7914 215.083 27.8205 215.04 27.8205H208.354C208.326 27.8205 208.302 27.8091 208.285 27.7873C208.267 27.7654 208.261 27.7394 208.267 27.7122L212.043 9.86039C212.049 9.83316 212.043 9.8072 212.025 9.78535C212.008 9.76351 211.984 9.75211 211.956 9.75211H207.04C207.012 9.75211 206.988 9.74072 206.97 9.71887C206.953 9.69734 206.946 9.67139 206.952 9.64416L207.452 7.25101C207.461 7.20891 207.497 7.17947 207.54 7.17947H224.5C224.528 7.17947 224.552 7.19087 224.569 7.21271C224.587 7.23424 224.593 7.2602 224.587 7.28742L224.087 9.68088C224.078 9.72267 224.042 9.75211 224 9.75211ZM184.262 27.8205C183.286 27.8205 182.564 27.5264 182.096 26.9381C181.629 26.3496 181.504 25.567 181.723 24.5896L184.709 10.4103C184.928 9.43299 185.397 8.65036 186.113 8.06213C186.83 7.47358 187.666 7.17947 188.622 7.17947H199.89C199.918 7.17947 199.942 7.19087 199.96 7.21271C199.978 7.23424 199.984 7.2602 199.978 7.28742L199.478 9.68088C199.469 9.72267 199.433 9.75211 199.39 9.75211H191.801C191.758 9.75211 191.722 9.78124 191.713 9.82335L190.377 16.1052C190.371 16.1328 190.378 16.1584 190.395 16.1803C190.413 16.2024 190.437 16.2138 190.465 16.2138H196.247C196.275 16.2138 196.299 16.2252 196.316 16.2471C196.334 16.2686 196.34 16.2945 196.334 16.3218L195.834 18.7149C195.826 18.757 195.79 18.7861 195.747 18.7861H189.889C189.846 18.7861 189.81 18.8156 189.801 18.8574L188.466 25.1392C188.46 25.1668 188.466 25.1928 188.484 25.2146C188.501 25.2364 188.525 25.2478 188.554 25.2478H196.068C196.095 25.2478 196.119 25.2592 196.137 25.2811C196.155 25.3026 196.161 25.3286 196.156 25.3561L195.655 27.7493C195.647 27.7914 195.61 27.8205 195.568 27.8205H184.262ZM171.106 9.82335L167.858 25.1396C167.853 25.1668 167.859 25.1928 167.876 25.2146C167.894 25.2364 167.918 25.2478 167.946 25.2478H172.064C172.106 25.2478 172.142 25.2187 172.151 25.1766L175.398 9.86071C175.404 9.83316 175.398 9.8072 175.38 9.78535C175.363 9.76351 175.339 9.75211 175.311 9.75211H171.193C171.151 9.75211 171.115 9.78124 171.106 9.82335ZM179.155 24.5896C178.936 25.567 178.468 26.3496 177.751 26.9381C177.034 27.5264 176.198 27.8205 175.242 27.8205H160.539C160.512 27.8205 160.488 27.8091 160.47 27.7873C160.452 27.7654 160.446 27.7394 160.452 27.7122L164.774 7.25071C164.783 7.2086 164.819 7.17947 164.862 7.17947H179.603C180.578 7.17947 181.3 7.47358 181.768 8.06213C182.236 8.65036 182.36 9.43299 182.141 10.4103L179.155 24.5896Z" fill="#FCFEFF"/>
<path d="M156.032 27.8205H149.338C149.31 27.8205 149.286 27.8091 149.268 27.7873C149.251 27.7654 149.244 27.7394 149.25 27.7122L153.578 7.25071C153.587 7.2086 153.623 7.17947 153.666 7.17947H160.36C160.388 7.17947 160.412 7.19087 160.43 7.21271C160.447 7.23456 160.454 7.26052 160.448 7.28774L156.12 27.7493C156.111 27.7914 156.075 27.8205 156.032 27.8205ZM141.576 27.8205H134.84C134.792 27.8205 134.753 27.7835 134.75 27.736L134.326 20.2393C134.323 20.1982 134.295 20.1646 134.254 20.1564C134.213 20.1481 134.173 20.1681 134.155 20.2054L130.503 27.7698C130.488 27.8015 130.458 27.8205 130.422 27.8205H123.686C123.638 27.8205 123.599 27.7835 123.596 27.736L122.381 7.27476C122.379 7.24911 122.388 7.22632 122.405 7.20764C122.423 7.18896 122.445 7.17947 122.471 7.17947H129.168C129.216 7.17947 129.255 7.21651 129.258 7.264L130.13 22.3311C130.132 22.3722 130.161 22.4058 130.202 22.414C130.243 22.4219 130.282 22.4023 130.3 22.3652L133.997 14.7391C134.004 14.7245 134.007 14.7106 134.006 14.6945L133.564 7.27476C133.563 7.24911 133.571 7.22632 133.589 7.20764C133.606 7.18896 133.628 7.17947 133.654 7.17947H140.351C140.399 7.17947 140.438 7.21651 140.441 7.264L141.313 22.3298C141.316 22.3713 141.345 22.4045 141.385 22.4127C141.426 22.4207 141.466 22.401 141.484 22.3637L148.784 7.23013C148.8 7.19847 148.83 7.17947 148.865 7.17947H151.447C151.479 7.17947 151.506 7.19466 151.523 7.22157C151.54 7.24848 151.541 7.27951 151.528 7.30832L141.657 27.7695C141.641 27.8015 141.611 27.8205 141.576 27.8205ZM102.834 9.82335L99.5829 25.1396C99.5772 25.1668 99.5833 25.1928 99.601 25.2146C99.6187 25.2364 99.6427 25.2478 99.6709 25.2478H103.793C103.836 25.2478 103.872 25.2187 103.881 25.1766L107.132 9.86071C107.138 9.83316 107.132 9.8072 107.114 9.78535C107.096 9.76351 107.072 9.75211 107.045 9.75211H102.922C102.879 9.75211 102.843 9.78124 102.834 9.82335ZM110.893 24.5896C110.674 25.567 110.205 26.3496 109.488 26.9381C108.77 27.5264 107.933 27.8205 106.976 27.8205H92.2549C92.227 27.8205 92.203 27.8091 92.1853 27.7873C92.1675 27.7654 92.1612 27.7394 92.1672 27.7122L96.4949 7.25071C96.5037 7.2086 96.5398 7.17947 96.5825 7.17947H111.341C112.318 7.17947 113.041 7.47358 113.509 8.06213C113.978 8.65036 114.102 9.43299 113.883 10.4103L110.893 24.5896ZM89.8884 27.8205H75.45C75.4219 27.8205 75.3978 27.8091 75.3801 27.7873C75.3627 27.7654 75.3563 27.7394 75.362 27.7122L79.69 7.25071C79.6989 7.2086 79.7349 7.17947 79.7777 7.17947H86.4718C86.4997 7.17947 86.5237 7.19087 86.5414 7.21271C86.5592 7.23456 86.5652 7.26052 86.5595 7.28774L82.7781 25.1396C82.772 25.1671 82.7784 25.1928 82.7961 25.2146C82.8135 25.2364 82.8375 25.2478 82.8657 25.2478H90.3893C90.4172 25.2478 90.4412 25.2592 90.4586 25.2811C90.4764 25.3026 90.4827 25.3286 90.477 25.3561L89.9763 27.7493C89.9675 27.7914 89.9314 27.8205 89.8884 27.8205ZM72.6629 27.8205H65.9672C65.9225 27.8205 65.8852 27.7885 65.8786 27.7442L64.9149 21.4351C64.9083 21.3911 64.8709 21.3591 64.8263 21.3591H63.0323C62.9896 21.3591 62.9535 21.3882 62.9446 21.43L61.5993 27.7493C61.5905 27.7914 61.5544 27.8205 61.5117 27.8205H54.8175C54.7893 27.8205 54.7656 27.8091 54.7479 27.7873C54.7302 27.7654 54.7238 27.7394 54.7295 27.7122L59.0575 7.25071C59.0664 7.2086 59.1024 7.17947 59.1451 7.17947H73.9041C74.8807 7.17947 75.5984 7.47358 76.057 8.06213C76.5152 8.65004 76.6349 9.43267 76.4159 10.4097C76.4159 10.41 76.4155 10.4103 76.4155 10.4106L74.8009 18.1283C74.6215 18.9657 74.2579 19.6587 73.7095 20.2073C73.181 20.7361 72.5553 21.084 71.8325 21.2512C71.7863 21.2619 71.7566 21.3059 71.7638 21.3525L72.7515 27.717C72.7556 27.7439 72.7487 27.7686 72.7309 27.7891C72.7135 27.8097 72.6901 27.8205 72.6629 27.8205ZM65.3966 9.82335L63.5209 18.6779C63.5152 18.7054 63.5215 18.7314 63.5389 18.7529C63.5567 18.7747 63.5807 18.7861 63.6089 18.7861H67.7014C67.7441 18.7861 67.7802 18.757 67.7891 18.7152L69.6647 9.86039C69.6704 9.83316 69.6644 9.8072 69.6467 9.78535C69.629 9.76351 69.6049 9.75211 69.5771 9.75211H65.4842C65.4415 9.75211 65.4054 9.78156 65.3966 9.82335ZM44.7641 9.82335L41.513 25.1396C41.5073 25.1668 41.5137 25.1928 41.5311 25.2146C41.5488 25.2364 41.5728 25.2478 41.6007 25.2478H45.7233C45.7663 25.2478 45.8021 25.2187 45.8109 25.1766L49.0623 9.86071C49.068 9.83316 49.0617 9.8072 49.0442 9.78535C49.0265 9.76351 49.0025 9.75211 48.9743 9.75211H44.852C44.809 9.75211 44.7733 9.78124 44.7641 9.82335ZM52.8228 24.5896C52.6038 25.567 52.1352 26.3496 51.4174 26.9381C50.7 27.5264 49.8626 27.8205 48.9056 27.8205H37.3037C36.3269 27.8205 35.6043 27.5264 35.1359 26.9381C34.6674 26.3496 34.5428 25.567 34.762 24.5896L37.7522 10.4103C37.9716 9.43299 38.44 8.65036 39.1576 8.06213C39.8753 7.47358 40.7127 7.17947 41.6694 7.17947H53.2716C54.2482 7.17947 54.971 7.47358 55.4394 8.06213C55.908 8.65036 56.0324 9.43299 55.8131 10.4103L52.8228 24.5896ZM26.393 27.8205H19.6565C19.6089 27.8205 19.5697 27.7835 19.567 27.736L19.1429 20.2393C19.1405 20.1982 19.1115 20.1646 19.0708 20.1564C19.0302 20.1481 18.9906 20.1681 18.9726 20.2054L15.3203 27.7698C15.3049 27.8015 15.2748 27.8205 15.2395 27.8205H8.50284C8.45528 27.8205 8.41611 27.7835 8.41334 27.736L7.19792 7.27476C7.19644 7.24911 7.20465 7.22632 7.22225 7.20764C7.23986 7.18896 7.26191 7.17947 7.28752 7.17947H13.9851C14.0327 7.17947 14.0719 7.21651 14.0747 7.264L14.947 22.3311C14.9493 22.3722 14.9784 22.4058 15.0189 22.414C15.0596 22.4219 15.0991 22.4023 15.1172 22.3652L18.814 14.7391C18.8211 14.7245 18.8238 14.7106 18.8228 14.6945L18.3814 7.27476C18.3798 7.24911 18.3881 7.22632 18.4056 7.20764C18.4232 7.18896 18.4453 7.17947 18.471 7.17947H25.1686C25.2161 7.17947 25.2554 7.21651 25.2581 7.264L26.1303 22.3298C26.1327 22.3713 26.1617 22.4045 26.2024 22.4127C26.2429 22.4207 26.2826 22.401 26.3006 22.3637L33.6013 7.23013C33.6167 7.19847 33.6468 7.17947 33.6821 7.17947H36.2638C36.2955 7.17947 36.3229 7.19466 36.3397 7.22157C36.3566 7.24848 36.3584 7.27951 36.3446 7.30832L26.4737 27.7695C26.4584 27.8015 26.4283 27.8205 26.393 27.8205Z" fill="#FCFEFF"/>
</svg>
