<svg width="72" height="72" viewBox="0 0 72 72" fill="none" xmlns="http://www.w3.org/2000/svg">
<path d="M36 14.517C27.315 14.517 20.25 21.519 20.25 30.1253C20.25 38.7315 27.315 45.7335 36 45.7335C44.6827 45.7335 51.75 38.7315 51.75 30.1253C51.75 21.519 44.6827 14.517 36 14.517ZM36 41.2335C29.7968 41.2335 24.75 36.2498 24.75 30.1253C24.75 24.0008 29.7968 19.017 36 19.017C42.2032 19.017 47.25 24.0008 47.25 30.1253C47.25 36.2498 42.2032 41.2335 36 41.2335Z" fill="#ED1C24"/>
<path d="M36 4.5C21.7327 4.5 10.125 15.9952 10.125 30.1252C10.125 40.3987 23.067 56.4862 30.7845 65.1645C31.4403 65.8992 32.2439 66.4871 33.1427 66.8896C34.0415 67.2922 35.0152 67.5002 36 67.5002C36.9848 67.5002 37.9585 67.2922 38.8573 66.8896C39.7561 66.4871 40.5597 65.8992 41.2155 65.1645C48.9308 56.4907 61.875 40.401 61.875 30.1252C61.875 15.9952 50.2673 4.5 36 4.5ZM37.854 62.172C36.9045 63.2407 35.0932 63.2385 34.146 62.1742C21.9217 48.4267 14.625 36.4455 14.625 30.1252C14.625 18.477 24.2145 9 36 9C47.7855 9 57.375 18.477 57.375 30.1252C57.375 36.45 50.0782 48.429 37.854 62.172Z" fill="#ED1C24"/>
</svg>
