<svg width="24" height="24" viewBox="0 0 24 24" fill="none" xmlns="http://www.w3.org/2000/svg">
<path d="M19.0498 4.90999C18.1329 3.9841 17.0408 3.24996 15.8373 2.75036C14.6338 2.25075 13.3429 1.99568 12.0398 1.99999C6.5798 1.99999 2.1298 6.44999 2.1298 11.91C2.1298 13.66 2.5898 15.36 3.4498 16.86L2.0498 22L7.2998 20.62C8.7498 21.41 10.3798 21.83 12.0398 21.83C17.4998 21.83 21.9498 17.38 21.9498 11.92C21.9498 9.26999 20.9198 6.77999 19.0498 4.90999ZM12.0398 20.15C10.5598 20.15 9.1098 19.75 7.8398 19L7.5398 18.82L4.4198 19.64L5.2498 16.6L5.0498 16.29C4.22735 14.9771 3.79073 13.4593 3.7898 11.91C3.7898 7.36999 7.4898 3.66999 12.0298 3.66999C14.2298 3.66999 16.2998 4.52999 17.8498 6.08999C18.6174 6.85386 19.2257 7.76254 19.6394 8.76332C20.0531 9.76411 20.264 10.8371 20.2598 11.92C20.2798 16.46 16.5798 20.15 12.0398 20.15ZM16.5598 13.99C16.3098 13.87 15.0898 13.27 14.8698 13.18C14.6398 13.1 14.4798 13.06 14.3098 13.3C14.1398 13.55 13.6698 14.11 13.5298 14.27C13.3898 14.44 13.2398 14.46 12.9898 14.33C12.7398 14.21 11.9398 13.94 10.9998 13.1C10.2598 12.44 9.7698 11.63 9.6198 11.38C9.4798 11.13 9.5998 11 9.7298 10.87C9.8398 10.76 9.9798 10.58 10.0998 10.44C10.2198 10.3 10.2698 10.19 10.3498 10.03C10.4298 9.85999 10.3898 9.71999 10.3298 9.59999C10.2698 9.47999 9.7698 8.25999 9.5698 7.75999C9.3698 7.27999 9.1598 7.33999 9.0098 7.32999H8.5298C8.3598 7.32999 8.0998 7.38999 7.8698 7.63999C7.6498 7.88999 7.0098 8.48999 7.0098 9.70999C7.0098 10.93 7.89981 12.11 8.0198 12.27C8.1398 12.44 9.7698 14.94 12.2498 16.01C12.8398 16.27 13.2998 16.42 13.6598 16.53C14.2498 16.72 14.7898 16.69 15.2198 16.63C15.6998 16.56 16.6898 16.03 16.8898 15.45C17.0998 14.87 17.0998 14.38 17.0298 14.27C16.9598 14.16 16.8098 14.11 16.5598 13.99Z" fill="#F1F8FD"/>
</svg>
