<svg width="72" height="72" viewBox="0 0 72 72" fill="none" xmlns="http://www.w3.org/2000/svg">
<path d="M60.75 13.5H11.25C7.5285 13.5 4.5 16.5285 4.5 20.25V51.75C4.5 55.4715 7.5285 58.5 11.25 58.5H60.75C64.4715 58.5 67.5 55.4715 67.5 51.75V20.25C67.5 16.5285 64.4715 13.5 60.75 13.5ZM51.8175 44.2057C51.5745 44.0373 51.3007 43.9184 51.0117 43.8558C50.7227 43.7932 50.4242 43.7882 50.1333 43.8409C49.8423 43.8937 49.5646 44.0032 49.316 44.1633C49.0674 44.3234 48.8528 44.5308 48.6844 44.7739C48.516 45.0169 48.3971 45.2907 48.3345 45.5797C48.2719 45.8687 48.2668 46.1672 48.3195 46.4581C48.3723 46.749 48.4818 47.0267 48.6419 47.2753C48.802 47.5239 49.0095 47.7386 49.2525 47.907L58.0635 54H13.9388L22.7453 47.907C22.9883 47.7389 23.1958 47.5245 23.356 47.2762C23.5162 47.0279 23.6259 46.7504 23.6789 46.4597C23.7318 46.169 23.727 45.8706 23.6647 45.5818C23.6024 45.2929 23.4838 45.0192 23.3156 44.7761C23.1475 44.5331 22.9332 44.3256 22.6848 44.1654C22.4365 44.0052 22.159 43.8955 21.8683 43.8425C21.5776 43.7895 21.2793 43.7944 20.9904 43.8567C20.7015 43.919 20.4278 44.0376 20.1847 44.2057L9.03375 51.921C9.02925 51.8603 9 51.8085 9 51.75V20.25C9 20.1892 9.02925 20.1375 9.03375 20.079L32.1525 36.0675C33.3225 36.8843 34.6635 37.2915 36.0045 37.2915C37.3433 37.2915 38.682 36.8865 39.8475 36.072L62.9685 20.079C62.973 20.1397 63.0022 20.1915 63.0022 20.25V51.75C63.0022 51.8108 62.973 51.8625 62.9685 51.921L51.8175 44.2057ZM13.9365 18H58.059L37.2757 32.3775C36.9009 32.6418 36.4534 32.7832 35.9948 32.7824C35.5362 32.7816 35.0891 32.6386 34.7152 32.373L13.9365 18Z" fill="#ED1C24"/>
</svg>
