<svg width="72" height="72" viewBox="0 0 72 72" fill="none" xmlns="http://www.w3.org/2000/svg">
<path d="M45.5996 43.4007C43.3041 42.6671 40.7933 43.8223 39.8703 46.0211C39.8162 46.1488 39.7648 46.2776 39.7161 46.4074C36.8008 45.148 34.1322 43.381 31.8344 41.1889C31.8307 41.1889 31.8289 41.1851 31.8251 41.1833C31.4791 40.8572 31.1428 40.5209 30.8167 40.1749L30.8093 40.1656C28.6179 37.8682 26.8517 35.2002 25.5926 32.2857C25.7226 32.2374 25.8526 32.1854 25.9789 32.1316C28.1796 31.2067 29.331 28.6903 28.5974 26.4004C23.3436 10 23.2043 10 21.5143 10C18.4616 10.0034 15.5349 11.2177 13.3763 13.3763C11.2177 15.5349 10.0034 18.4616 10 21.5143C10 43.8371 28.1629 62 50.4857 62C56.8353 62 62 56.8353 62 50.4857C62 48.7957 62 48.6583 45.5996 43.4007ZM50.4857 58.2857C30.2113 58.2857 13.7143 41.7887 13.7143 21.5143C13.7161 19.6372 14.394 17.8235 15.6239 16.4054C16.8537 14.9873 18.5532 14.0597 20.4111 13.7923C21.0927 15.5139 22.5691 19.7574 25.0614 27.5314C25.1353 27.7567 25.1231 28.0014 25.027 28.2182C24.931 28.435 24.758 28.6085 24.5414 28.7051C23.9843 28.9373 23.4049 29.1063 22.8143 29.2047C22.547 29.2479 22.2924 29.3491 22.0685 29.5013C21.8445 29.6535 21.6567 29.853 21.5183 30.0857C21.3798 30.3184 21.294 30.5786 21.267 30.848C21.24 31.1174 21.2724 31.3895 21.362 31.645C22.805 35.7976 25.0763 39.523 28.1164 42.7229C28.4916 43.1221 28.8779 43.5084 29.2771 43.8836C32.4429 46.9031 36.2209 49.2066 40.355 50.638C40.6104 50.7276 40.8823 50.76 41.1516 50.7331C41.4209 50.7063 41.681 50.6207 41.9137 50.4824C42.1463 50.3441 42.3458 50.1565 42.4982 49.9328C42.6505 49.7091 42.7519 49.4547 42.7953 49.1876C42.8937 48.5951 43.0627 48.0157 43.2949 47.4604C43.4806 47.0147 43.995 46.7919 44.4649 46.9386C52.2407 49.4309 56.4861 50.9073 58.2077 51.5889C57.9404 53.4465 57.013 55.1457 55.5953 56.3755C54.1775 57.6053 52.3644 58.2834 50.4876 58.2857H50.4857ZM39.2221 19.2857C46.6619 19.2857 52.7143 25.3381 52.7143 32.7779C52.7143 33.2704 52.9099 33.7428 53.2582 34.0911C53.6065 34.4393 54.0789 34.635 54.5714 34.635C55.064 34.635 55.5363 34.4393 55.8846 34.0911C56.2329 33.7428 56.4286 33.2704 56.4286 32.7779C56.4286 23.2897 48.7103 15.5714 39.2221 15.5714C38.7296 15.5714 38.2572 15.7671 37.9089 16.1154C37.5607 16.4637 37.365 16.936 37.365 17.4286C37.365 17.9211 37.5607 18.3935 37.9089 18.7418C38.2572 19.0901 38.7296 19.2857 39.2221 19.2857Z" fill="#ED1C24"/>
<path d="M36.0002 27.882C38.1525 27.8844 40.216 28.7405 41.7379 30.2624C43.2598 31.7843 44.1158 33.8477 44.1182 36C44.1182 36.4774 44.3078 36.9353 44.6454 37.2728C44.983 37.6104 45.4408 37.8 45.9182 37.8C46.3956 37.8 46.8534 37.6104 47.191 37.2728C47.5286 36.9353 47.7182 36.4774 47.7182 36C47.7182 29.538 42.4622 24.282 36.0002 24.282C35.5228 24.282 35.065 24.4717 34.7274 24.8093C34.3898 25.1468 34.2002 25.6047 34.2002 26.082C34.2002 26.5594 34.3898 27.0173 34.7274 27.3548C35.065 27.6924 35.5228 27.882 36.0002 27.882Z" fill="#ED1C24"/>
</svg>
