<svg width="24" height="24" viewBox="0 0 24 24" fill="none" xmlns="http://www.w3.org/2000/svg">
<g clip-path="url(#clip0_286_92)">
<path fill-rule="evenodd" clip-rule="evenodd" d="M19.4445 1.50392C19.5383 1.63295 19.6053 1.77887 19.6417 1.93333C19.678 2.0878 19.683 2.24778 19.6565 2.40415C19.6299 2.56053 19.5722 2.71022 19.4867 2.84469C19.4012 2.97917 19.2895 3.09578 19.1582 3.18787L16.576 4.99978C16.1789 5.27803 15.8768 5.66788 15.7096 6.11801C15.5425 6.56814 15.518 7.05744 15.6395 7.52149L19.7481 3.48603C19.8615 3.37074 19.9971 3.27878 20.147 3.21551C20.297 3.15225 20.4582 3.11895 20.6214 3.11756C20.7846 3.11616 20.9464 3.14671 21.0975 3.2074C21.2485 3.2681 21.3858 3.35773 21.5011 3.47107C21.6165 3.58441 21.7078 3.71919 21.7696 3.86755C21.8314 4.0159 21.8625 4.17485 21.8611 4.33513C21.8597 4.49542 21.8258 4.65382 21.7613 4.80109C21.6969 4.94837 21.6033 5.08157 21.4859 5.19292L17.3773 9.22837C17.8498 9.34768 18.3479 9.32365 18.8062 9.15946C19.2645 8.99527 19.6614 8.69861 19.9447 8.30854L21.7895 5.77235C21.9824 5.52095 22.2676 5.35351 22.5844 5.30572C22.9012 5.25794 23.2245 5.33358 23.4853 5.51654C23.7461 5.6995 23.9238 5.97528 23.9806 6.2851C24.0373 6.59492 23.9686 6.91426 23.7891 7.17504L21.9456 9.71243C21.238 10.6851 20.1857 11.3626 18.9953 11.6119C17.805 11.8612 16.5628 11.6642 15.5129 11.0596L13.3793 13.1552L19.2823 18.9543C19.5062 19.1819 19.63 19.4868 19.6272 19.8034C19.6244 20.1199 19.4952 20.4226 19.2673 20.6464C19.0394 20.8703 18.7312 20.9972 18.409 21C18.0867 21.0027 17.7763 20.881 17.5445 20.6611L11.6415 14.8633L5.84299 20.5573C5.72962 20.6726 5.594 20.7646 5.44406 20.8278C5.29411 20.8911 5.13284 20.9244 4.96966 20.9258C4.80647 20.9272 4.64463 20.8967 4.49359 20.836C4.34255 20.7753 4.20533 20.6856 4.08993 20.5723C3.97453 20.4589 3.88328 20.3242 3.82148 20.1758C3.75968 20.0275 3.72859 19.8685 3.73001 19.7082C3.73142 19.5479 3.76533 19.3895 3.82974 19.2423C3.89415 19.095 3.98778 18.9618 4.10516 18.8504L9.90243 13.1552L7.98517 11.2721L6.24734 12.9789C6.01686 13.2052 5.70432 13.3324 5.37842 13.3324C5.05253 13.3324 4.73998 13.2052 4.50951 12.9789L1.79953 10.3184C0.887556 9.42254 0.285707 8.26753 0.079244 7.01701C-0.127219 5.76649 0.0721718 4.48386 0.64917 3.35084C0.880225 2.89695 1.14446 2.48773 1.70489 2.3972C1.89707 2.36662 2.09388 2.38132 2.27914 2.44008C2.4644 2.49885 2.63279 2.6 2.77045 2.7352L8.8504 8.70689L8.85531 8.71172L11.6427 11.4495L13.7763 9.35392C13.1611 8.32278 12.9608 7.10297 13.2145 5.93413C13.4683 4.76529 14.1579 3.73191 15.1479 3.03698L17.7313 1.22507C17.9964 1.03892 18.326 0.96384 18.6476 1.01636C18.9691 1.06888 19.2562 1.24469 19.4457 1.50513L19.4445 1.50392Z" fill="#ED1C24"/>
</g>
<defs>
<clipPath id="clip0_286_92">
<rect width="24" height="24" fill="white"/>
</clipPath>
</defs>
</svg>
