<svg width="24" height="24" viewBox="0 0 24 24" fill="none" xmlns="http://www.w3.org/2000/svg">
<path d="M6.375 3H5.25C3.18 3 1.5 4.68 1.5 6.75H6.375V3ZM7.875 3H11.25V6.75H7.875V3ZM12.75 3H16.125V6.75H12.75V3ZM18.75 3H17.625V6.75H22.5C22.5 4.68 20.82 3 18.75 3ZM1.5 17.25C1.5 19.32 3.18 21 5.25 21H18.75C20.82 21 22.5 19.32 22.5 17.25V8.25H1.5V17.25ZM8.52 11.88C8.52 11.25 8.85 10.68 9.3975 10.365C9.945 10.0425 10.605 10.0425 11.1525 10.365L14.6025 12.3525C14.8702 12.5062 15.0924 12.728 15.2465 12.9954C15.4007 13.2629 15.4812 13.5663 15.48 13.875C15.48 14.5125 15.15 15.075 14.6025 15.3975L11.1525 17.385C10.875 17.55 10.575 17.625 10.275 17.625C9.975 17.625 9.675 17.55 9.3975 17.385C9.13014 17.2329 8.908 17.0124 8.75381 16.7462C8.59963 16.48 8.51894 16.1776 8.52 15.87V11.88Z" fill="#ED1C24"/>
<path d="M10.1471 16.0875C10.1921 16.1175 10.2896 16.155 10.4021 16.0875L13.8521 14.1C13.9646 14.0325 13.9796 13.9275 13.9796 13.875C13.9796 13.8225 13.9646 13.7175 13.8521 13.65L10.4021 11.6625C10.3644 11.6374 10.3199 11.6244 10.2746 11.625C10.2297 11.6273 10.186 11.6402 10.1471 11.6625C10.1078 11.6834 10.075 11.7148 10.0525 11.7532C10.03 11.7916 10.0186 11.8355 10.0196 11.88V15.87C10.0196 15.9975 10.1021 16.065 10.1471 16.0875Z" fill="#ED1C24"/>
</svg>
