<svg width="24" height="24" viewBox="0 0 24 24" fill="none" xmlns="http://www.w3.org/2000/svg">
<path d="M20.97 8.63995H20.67V7.44745C20.67 6.17245 19.6275 5.13745 18.36 5.13745H3.81C2.535 5.13745 1.5 6.17245 1.5 7.44745V16.5525C1.5 17.8275 2.535 18.8625 3.81 18.8625H18.36C19.6275 18.8625 20.67 17.8275 20.67 16.5525V15.36H20.97C21.81 15.36 22.5 14.6775 22.5 13.83V10.17C22.5 9.32245 21.81 8.63995 20.97 8.63995ZM13.2525 12.435L11.01 15.555C10.9423 15.6533 10.8515 15.7334 10.7456 15.7883C10.6397 15.8433 10.5218 15.8713 10.4025 15.87C10.2459 15.871 10.0931 15.821 9.9675 15.7275C9.88681 15.6711 9.8182 15.5991 9.76571 15.5158C9.71322 15.4326 9.6779 15.3396 9.66183 15.2425C9.64576 15.1454 9.64926 15.046 9.67213 14.9503C9.695 14.8545 9.73677 14.7643 9.795 14.685L11.1825 12.75H9.5175C8.925 12.7575 8.565 12.0375 8.91 11.565L11.1525 8.44495C11.3925 8.10745 11.8575 8.03245 12.195 8.27245C12.5325 8.51245 12.615 8.97745 12.3675 9.31495L10.98 11.25H12.6375C13.0275 11.2575 13.3725 11.5725 13.38 11.9625C13.4025 12.1275 13.335 12.2925 13.2525 12.435Z" fill="#363739"/>
</svg>
