<svg width="24" height="24" viewBox="0 0 24 24" fill="none" xmlns="http://www.w3.org/2000/svg">
<g clip-path="url(#clip0_286_75)">
<path d="M4.50151 8.97958C2.5773 8.97958 1.01172 7.41405 1.01172 5.48979C1.01172 3.56553 2.57725 2 4.50156 2C6.42587 2 7.9913 3.56553 7.9913 5.48984C7.9913 7.41415 6.42577 8.97958 4.50151 8.97958ZM4.50151 21.7695C4.35813 21.7695 4.21812 21.726 4.09998 21.6448C3.98183 21.5635 3.8911 21.4484 3.83978 21.3145L0.046943 11.4189C0.00580496 11.3116 -0.00860916 11.1958 0.00494356 11.0817C0.0184963 10.9676 0.0596091 10.8584 0.124737 10.7637C0.189865 10.669 0.277053 10.5915 0.378783 10.538C0.480512 10.4845 0.593731 10.4566 0.708676 10.4566H8.29416C8.4091 10.4566 8.5223 10.4846 8.62402 10.5381C8.72574 10.5916 8.81292 10.669 8.87804 10.7638C8.94317 10.8585 8.98429 10.9676 8.99786 11.0817C9.01143 11.1958 8.99705 11.3116 8.95594 11.4189L5.16329 21.3145C5.11196 21.4484 5.02123 21.5635 4.90308 21.6448C4.78492 21.726 4.6449 21.7695 4.50151 21.7695ZM19.4986 8.97958C17.5743 8.97958 16.0087 7.41405 16.0087 5.48979C16.0087 3.56553 17.5744 2 19.4986 2C21.4229 2 22.9884 3.56553 22.9884 5.48984C22.9884 7.41415 21.4229 8.97958 19.4986 8.97958ZM23.2914 21.7695H15.7059C15.591 21.7695 15.4778 21.7415 15.3761 21.6881C15.2743 21.6346 15.1871 21.5571 15.122 21.4624C15.0569 21.3677 15.0158 21.2586 15.0022 21.1445C14.9886 21.0303 15.003 20.9146 15.0441 20.8073L18.8368 10.9115C18.8881 10.7776 18.9789 10.6625 19.097 10.5812C19.2152 10.5 19.3552 10.4565 19.4986 10.4565C19.7922 10.4565 20.0554 10.6375 20.1603 10.9115L23.9531 20.8073C23.9943 20.9146 24.0086 21.0303 23.9951 21.1445C23.9815 21.2586 23.9404 21.3677 23.8753 21.4624C23.8101 21.5571 23.723 21.6345 23.6213 21.688C23.5195 21.7415 23.4063 21.7695 23.2914 21.7695ZM12 21.7695C11.6087 21.7695 11.2914 21.4522 11.2914 21.0609V2.70861C11.2914 2.31734 11.6088 2 12 2C12.3913 2 12.7087 2.31734 12.7087 2.70861V21.0609C12.7087 21.4522 12.3915 21.7695 12 21.7695Z" fill="#363739"/>
</g>
<defs>
<clipPath id="clip0_286_75">
<rect width="24" height="24" fill="white"/>
</clipPath>
</defs>
</svg>
