<svg width="24" height="24" viewBox="0 0 24 24" fill="none" xmlns="http://www.w3.org/2000/svg">
<path d="M6.73594 15.7267C6.73594 17.8501 5.09062 19.5798 3.07031 19.5798C2.74687 19.5798 2.48438 19.3173 2.48438 18.9939C2.48438 18.6705 2.74687 18.408 3.07031 18.408C4.44375 18.408 5.56406 17.2033 5.56406 15.7267C5.56406 15.4033 5.82656 15.1408 6.15 15.1408C6.47344 15.1408 6.73594 15.4033 6.73594 15.7267ZM12.5859 15.7267V21C12.5859 21.3234 12.3234 21.5859 12 21.5859C11.6766 21.5859 11.4141 21.3234 11.4141 21V15.7267C11.4141 15.4033 11.6766 15.1408 12 15.1408C12.3234 15.1408 12.5859 15.4033 12.5859 15.7267ZM21.5109 18.9939C21.5109 19.3173 21.2484 19.5798 20.925 19.5798C18.9047 19.5798 17.2594 17.8501 17.2594 15.7267C17.2594 15.4033 17.5219 15.1408 17.8453 15.1408C18.1688 15.1408 18.4313 15.4033 18.4313 15.7267C18.4313 17.2033 19.5516 18.408 20.925 18.408C21.2484 18.408 21.5109 18.6705 21.5109 18.9939ZM20.4891 2.65796H3.51094C2.54531 2.65796 1.75781 3.44546 1.75781 4.41108V9.25796H22.2422V4.41108C22.2422 3.44546 21.4547 2.65796 20.4891 2.65796ZM14.0297 7.7064H9.97031C9.64687 7.7064 9.38437 7.4439 9.38437 7.12046C9.38437 6.79702 9.64687 6.53452 9.97031 6.53452H14.0297C14.3531 6.53452 14.6156 6.79702 14.6156 7.12046C14.6156 7.4439 14.3531 7.7064 14.0297 7.7064ZM1.75781 10.4298V12.1689C1.75781 13.1345 2.54531 13.922 3.51094 13.922H20.4844C21.45 13.922 22.2375 13.1345 22.2375 12.1689V10.4298H1.75781ZM20.1188 12.7595H3.88125C3.55781 12.7595 3.29531 12.497 3.29531 12.1736C3.29531 11.8501 3.55781 11.5876 3.88125 11.5876H20.1234C20.4469 11.5876 20.7094 11.8501 20.7094 12.1736C20.7047 12.497 20.4422 12.7595 20.1188 12.7595Z" fill="#363739"/>
</svg>
